<svg width="581" height="202" viewBox="0 0 581 202" fill="none" xmlns="http://www.w3.org/2000/svg">
<path d="M10.615 81.25V0H59.365V16.25H75.615V32.5H59.365V48.75H26.865V81.25H10.615ZM26.865 32.5H58.715V16.25H26.865V32.5ZM124.5 82.86C117.983 82.86 112.425 81.6333 107.825 79.18C103.302 76.7267 100.12 73.0083 98.28 68.025C96.5167 63.0417 96.4017 56.9467 97.935 49.74L108.285 0.749995H119.9L109.665 48.59C108.055 56.0267 108.438 61.815 110.815 65.955C113.268 70.095 117.83 72.165 124.5 72.165C131.477 72.165 136.843 70.1717 140.6 66.185C144.433 62.1983 147.155 56.295 148.765 48.475L158.885 0.749995H170.5L159.805 50.89C158.272 58.0967 156.048 64.0383 153.135 68.715C150.222 73.3917 146.388 76.9183 141.635 79.295C136.958 81.6717 131.247 82.86 124.5 82.86ZM181.533 81.25V0H230.283V16.25H246.533V32.5H230.283V65H246.533V81.25H230.283V65H214.033V48.75H197.783V81.25H181.533ZM197.783 32.5H229.633V16.25H197.783V32.5ZM269.083 0.749995H297.258C304.848 0.749995 311.594 2.39833 317.498 5.695C323.401 8.99166 327.963 13.6683 331.183 19.725C334.479 25.7817 336.128 32.7967 336.128 40.77C336.128 49.1267 334.518 56.3717 331.298 62.505C328.078 68.5617 323.478 73.2 317.498 76.42C311.594 79.64 304.656 81.25 296.683 81.25H269.083V0.749995ZM294.958 70.67C301.474 70.67 306.879 69.5583 311.173 67.335C315.543 65.035 318.763 61.7 320.833 57.33C322.979 52.8833 324.053 47.3633 324.053 40.77C324.053 34.79 322.979 29.615 320.833 25.245C318.763 20.7983 315.619 17.3867 311.403 15.01C307.186 12.5567 301.973 11.33 295.763 11.33H280.583V70.67H294.958ZM370.048 81.25V65H353.798V0H370.048V65H402.548V81.25H370.048ZM402.548 65V0H418.798V65H402.548ZM446.098 81.25V0H494.848V16.25H462.348V32.5H494.848V48.75H462.348V65H494.848V81.25H446.098ZM17.135 120.75H28.635L21.62 154.33H63.135L70.38 120.75H81.88L64.745 201.25H53.245L60.95 164.91H19.205L11.5 201.25H-9.48459e-06L17.135 120.75ZM94.0619 201.25V136.25H110.312V120H142.812V136.25H159.062V201.25H142.812V168.75H110.312V201.25H94.0619ZM110.312 152.5H142.812V136.9H110.312V152.5ZM235.112 152.5V136.25H202.612V120H235.112V136.25H251.362V152.5H235.112ZM202.612 201.25V185H186.362V136.25H202.612V185H235.112V201.25H202.612ZM235.112 185V168.75H251.362V185H235.112ZM278.662 201.25V120H294.912V152.5H311.162V168.75H327.412V185H343.662V201.25H327.412V185H311.162V168.75H294.912V201.25H278.662ZM327.412 136.25V120H343.662V136.25H327.412ZM311.162 152.5V136.25H327.412V152.5H311.162ZM366.212 120.75H423.137V131.33H377.712V154.33H411.292V164.795H377.712V190.67H423.137V201.25H366.212V120.75ZM435.621 120.75H470.006C475.449 120.75 480.126 121.708 484.036 123.625C487.946 125.542 490.897 128.148 492.891 131.445C494.961 134.742 495.996 138.46 495.996 142.6C495.996 146.587 495.152 150.075 493.466 153.065C491.779 156.055 489.479 158.47 486.566 160.31C483.652 162.15 480.394 163.415 476.791 164.105C480.317 164.642 483.192 165.638 485.416 167.095C487.639 168.475 489.364 170.277 490.591 172.5C491.817 174.723 492.776 177.56 493.466 181.01L497.491 201.25H484.956L481.736 182.045C481.122 178.595 480.087 175.873 478.631 173.88C477.251 171.81 475.334 170.315 472.881 169.395C470.504 168.475 467.476 168.015 463.796 168.015H447.121V201.25H435.621V120.75ZM468.281 157.665C472.957 157.665 476.714 156.553 479.551 154.33C482.464 152.107 483.921 148.81 483.921 144.44C483.921 140.07 482.502 136.812 479.666 134.665C476.829 132.442 473.034 131.33 468.281 131.33H447.121V157.665H468.281ZM531.42 136.25V120H580.17V136.25H531.42ZM563.92 185V168.75H531.42V152.5H515.17V136.25H531.42V152.5H563.92V168.75H580.17V185H563.92ZM515.17 201.25V185H563.92V201.25H515.17Z" fill="black"/>
</svg>
