<svg width="566" height="201" viewBox="0 0 566 201" fill="none" xmlns="http://www.w3.org/2000/svg">
<path d="M12.4201 80.5V-1.90735e-06H60.7201V16.1H76.8201V32.2H60.7201V48.3H28.5201V80.5H12.4201ZM28.5201 32.2H60.0761V16.1H28.5201V32.2ZM113.919 82.34C105.562 82.34 98.6241 80.96 93.1041 78.2C87.5841 75.44 83.7507 71.415 81.6041 66.125C79.4574 60.7583 79.1891 54.3183 80.7991 46.805L90.8041 -5.48363e-06H108.169L98.1641 46.345C96.7074 53.015 97.3974 58.19 100.234 61.87C103.071 65.55 107.632 67.39 113.919 67.39C119.976 67.39 124.652 65.5883 127.949 61.985C131.322 58.305 133.699 53.0917 135.079 46.345L144.969 -5.48363e-06H162.334L151.984 48.53C150.374 56.1967 147.959 62.5217 144.739 67.505C141.519 72.4117 137.379 76.13 132.319 78.66C127.259 81.1133 121.126 82.34 113.919 82.34ZM171.694 80.5V-1.90735e-06H219.994V16.1H236.094V32.2H219.994V64.4H236.094V80.5H219.994V64.4H203.894V48.3H187.794V80.5H171.694ZM187.794 32.2H219.35V16.1H187.794V32.2ZM247.686 -5.48363e-06H278.046C285.789 -5.48363e-06 292.881 1.60999 299.321 4.82999C305.838 7.97333 311.013 12.535 314.846 18.515C318.679 24.495 320.596 31.5483 320.596 39.675C320.596 48.0317 318.679 55.315 314.846 61.525C311.013 67.6583 305.838 72.3733 299.321 75.67C292.881 78.89 285.789 80.5 278.046 80.5H247.686V-5.48363e-06ZM277.241 66.01C282.914 66.01 287.629 65.0517 291.386 63.135C295.143 61.1417 297.941 58.2283 299.781 54.395C301.621 50.485 302.541 45.6933 302.541 40.02C302.541 34.8833 301.621 30.3983 299.781 26.565C297.941 22.7317 295.181 19.78 291.501 17.71C287.821 15.5633 283.298 14.49 277.931 14.49H265.166V66.01H277.241ZM348.399 80.5V64.4H332.299V-1.90735e-06H348.399V64.4H380.599V80.5H348.399ZM380.599 64.4V-1.90735e-06H396.699V64.4H380.599ZM418.595 80.5V-1.90735e-06H466.895V16.1H434.695V32.2H466.895V48.3H434.695V64.4H466.895V80.5H418.595ZM17.1351 120H34.3851L27.6001 151.855H61.7551L68.6551 120H85.9051L68.7701 200.5H51.5201L58.6501 166.345H24.4951L17.3651 200.5H6.85342e-05L17.1351 120ZM96.0916 200.5V136.1H112.192V120H144.392V136.1H160.492V200.5H144.392V168.3H112.192V200.5H96.0916ZM112.192 152.2H144.392V136.744H112.192V152.2ZM229.4 152.2V136.1H197.2V120H229.4V136.1H245.5V152.2H229.4ZM197.2 200.5V184.4H181.1V136.1H197.2V184.4H229.4V200.5H197.2ZM229.4 184.4V168.3H245.5V184.4H229.4ZM266.108 200.5V120H282.208V152.2H298.308V168.3H314.408V184.4H330.508V200.5H314.408V184.4H298.308V168.3H282.208V200.5H266.108ZM314.408 136.1V120H330.508V136.1H314.408ZM298.308 152.2V136.1H314.408V152.2H298.308ZM344.676 120H405.511V134.49H362.156V151.97H394.931V166.23H362.156V186.01H405.511V200.5H344.676V120ZM415.994 120H455.784C461.457 120 466.364 120.882 470.504 122.645C474.644 124.408 477.787 126.9 479.934 130.12C482.157 133.34 483.269 137.058 483.269 141.275C483.269 145.798 482.272 149.632 480.279 152.775C478.362 155.918 475.87 158.372 472.804 160.135C469.737 161.898 466.402 163.087 462.799 163.7C466.249 164.007 469.2 164.812 471.654 166.115C474.184 167.342 476.254 169.182 477.864 171.635C479.474 174.088 480.624 177.27 481.314 181.18L484.649 200.5H466.019L463.604 182.675C463.144 179.532 462.339 177.04 461.189 175.2C460.039 173.36 458.39 172.018 456.244 171.175C454.174 170.332 451.452 169.91 448.079 169.91H433.474V200.5H415.994V120ZM452.449 155.765C456.282 155.765 459.349 154.883 461.649 153.12C463.949 151.28 465.099 148.597 465.099 145.07C465.099 141.62 463.949 139.013 461.649 137.25C459.349 135.41 456.282 134.49 452.449 134.49H433.474V155.765H452.449ZM517.376 136.1V120H565.676V136.1H517.376ZM549.576 184.4V168.3H517.376V152.2H501.276V136.1H517.376V152.2H549.576V168.3H565.676V184.4H549.576ZM501.276 200.5V184.4H549.576V200.5H501.276Z" fill="black"/>
</svg>
