<svg width="624" height="105" viewBox="0 0 624 105" fill="none" xmlns="http://www.w3.org/2000/svg">
<g clip-path="url(#clip0_316_75)">
<path fill-rule="evenodd" clip-rule="evenodd" d="M37.7803 88.5958C44.6181 78.8577 58.5498 72.189 74.6206 72.189C90.6914 72.189 104.623 78.8577 111.461 88.5958C104.623 98.3339 90.6914 105.003 74.6206 105.003C58.5498 105.003 44.6181 98.3339 37.7803 88.5958Z" fill="white"/>
<path d="M37.541 16.227C44.3789 6.59855 58.2923 0.00292969 74.363 0.00292969C90.4338 0.00292969 104.347 6.59855 111.185 16.227C104.347 25.8555 90.4155 32.4512 74.363 32.4512C58.3105 32.4512 44.3789 25.8555 37.541 16.227Z" fill="white"/>
<path d="M75.0587 52.6941C65.1127 62.2495 51.6016 67.621 37.5236 67.621C23.4457 67.621 9.95281 62.2495 0.00683594 52.6941L37.5419 16.2446L75.077 52.7123L75.0587 52.6941Z" fill="white"/>
<path d="M148.812 52.713C138.866 62.2685 125.355 67.64 111.277 67.64C97.1993 67.64 83.7064 62.2685 73.7422 52.713L111.277 16.2271L148.812 52.713Z" fill="white"/>
<path d="M175.521 96.4151V31.2629H200.934L202.141 40.8366H203.347C205.432 37.3286 208.32 34.6429 212.013 32.8159C215.798 30.9705 220.168 30.057 225.141 30.057C230.443 30.057 235.068 31.135 238.999 33.2909C242.93 35.3737 245.91 38.6441 247.921 43.1021H249.128C251.779 38.3152 255.198 34.9535 259.367 33.0351C263.553 31.0436 268.325 30.0388 273.7 30.0388C279.076 30.0388 284.14 31.1532 288.162 33.4005C292.258 35.5564 295.384 38.9182 297.56 43.4675C299.735 47.9437 300.814 53.7355 300.814 60.8244V96.3968H274.194V64.1861C274.194 61.3908 273.92 58.9243 273.353 56.7683C272.786 54.6124 271.744 52.9316 270.227 51.744C268.782 50.4651 266.643 49.8256 263.846 49.8256C261.195 49.8256 258.946 50.392 257.099 51.5065C255.253 52.621 253.845 54.174 252.876 56.1837C251.907 58.1021 251.432 60.3311 251.432 62.8889V96.4151H224.921V63.9669C224.921 61.2446 224.647 58.8512 224.08 56.7866C223.605 54.6307 222.599 52.9498 221.064 51.7623C219.528 50.4833 217.334 49.8439 214.445 49.8439C211.794 49.8439 209.545 50.4468 207.699 51.6344C205.925 52.7489 204.572 54.3018 203.603 56.3116C202.634 58.23 202.159 60.4224 202.159 62.8889V96.4151H175.539H175.521ZM311.181 96.4151V31.2629H337.819V96.4151H311.181ZM311.181 24.5576V9.11914H337.819V24.5759H311.181V24.5576ZM348.24 96.4151V9.11914H374.86V96.4151H348.24ZM385.3 96.4151V9.11914H411.92V96.4151H385.3ZM422.36 96.4151V31.2629H448.98V96.4151H422.36ZM422.36 24.5576V9.11914H448.98V24.5759H422.36V24.5576ZM497.503 97.6027C491.396 97.6027 485.857 96.8902 480.884 95.4468C475.911 93.9303 471.614 91.7379 467.994 88.8512C464.466 85.9827 461.723 82.4565 459.803 78.3092C457.884 74.0704 456.915 69.247 456.915 63.8207C456.915 56.6405 458.597 50.5199 461.979 45.4955C465.361 40.4712 470.06 36.6344 476.075 34.0034C482.182 31.3725 489.331 30.057 497.521 30.057C503.628 30.057 509.168 30.8244 514.159 32.3408C519.132 33.7842 523.392 35.9401 526.92 38.8085C530.541 41.677 533.301 45.2397 535.239 49.4602C537.159 53.6076 538.128 58.3944 538.128 63.839C538.128 70.9462 536.446 77.0485 533.064 82.1642C529.773 87.1886 525.074 91.0253 518.967 93.6563C512.952 96.2872 505.785 97.6027 497.521 97.6027H497.503ZM497.503 77.5966C500.629 77.5966 503.244 77.0302 505.328 75.9157C507.412 74.8012 508.985 73.1934 510.027 71.1289C511.069 69.0461 511.599 66.6161 511.599 63.8207C511.599 61.6648 511.27 59.7464 510.63 58.0655C510.064 56.3116 509.186 54.8317 507.979 53.6258C506.846 52.42 505.401 51.5065 503.646 50.867C501.873 50.2275 499.825 49.9169 497.503 49.9169C494.45 49.9169 491.872 50.4833 489.788 51.5978C487.703 52.7123 486.131 54.3201 485.089 56.3847C484.047 58.4675 483.517 60.934 483.517 63.8025C483.517 65.9584 483.791 67.8768 484.358 69.5576C484.997 71.2385 485.893 72.6636 487.009 73.8694C488.215 75.0753 489.66 75.9888 491.342 76.6283C493.115 77.2677 495.163 77.5783 497.485 77.5783L497.503 77.5966ZM545.917 96.3968V31.2629H571.586L572.555 40.7269H573.762C575.681 37.3652 578.698 34.7708 582.793 32.9437C586.98 31.0254 591.258 30.0753 595.683 30.0753C600.107 30.0753 603.801 30.5869 607.256 31.6283C610.712 32.6697 613.692 34.3871 616.178 36.7805C618.665 39.1009 620.603 42.2068 621.956 46.1167C623.327 50.0266 624.003 54.85 624.003 60.6051V96.4151H597.383V65.2824C597.383 62.2495 597.054 59.582 596.414 57.2617C595.847 54.9413 594.732 53.1508 593.032 51.8719C591.423 50.5199 589.101 49.8439 586.048 49.8439C583.232 49.8439 580.819 50.4833 578.826 51.7623C576.815 52.9681 575.242 54.6307 574.127 56.7866C573.085 58.8694 572.555 61.2629 572.555 63.9669V96.4151H545.935L545.917 96.3968Z" fill="white"/>
</g>
<defs>
<clipPath id="clip0_316_75">
<rect width="624" height="105" fill="white"/>
</clipPath>
</defs>
</svg>
