<svg width="598" height="178" viewBox="0 0 598 178" fill="none" xmlns="http://www.w3.org/2000/svg">
<path d="M107.748 35.7981C106.629 33.9398 105.049 32.4026 103.161 31.3354C101.273 30.2683 99.1413 29.7075 96.973 29.7075C94.8046 29.7075 92.6731 30.2683 90.7852 31.3354C88.8974 32.4026 87.3172 33.9398 86.1982 35.7981L68.4737 66.1722C82.0145 72.9362 93.5514 83.1263 101.939 95.7308C110.326 108.335 115.273 122.916 116.287 138.024H103.842C102.83 125.074 98.4552 112.612 91.151 101.872C83.8469 91.1318 73.8665 82.4864 62.1974 76.791L45.7928 105.171C52.3528 108.114 58.0679 112.661 62.4124 118.392C66.757 124.124 69.5916 130.856 70.6556 137.971H42.0755C41.7365 137.947 41.4089 137.839 41.1221 137.656C40.8353 137.474 40.5983 137.223 40.4326 136.926C40.2669 136.629 40.1777 136.296 40.1729 135.956C40.1682 135.616 40.2481 135.28 40.4054 134.979L48.3248 121.503C45.6418 119.263 42.5753 117.529 39.274 116.383L31.4354 129.858C30.6193 131.259 30.0896 132.807 29.8769 134.414C29.6641 136.022 29.7727 137.655 30.1963 139.22C30.6198 140.784 31.3499 142.249 32.3441 143.529C33.3383 144.809 34.5769 145.879 35.9877 146.676C37.8466 147.724 39.9418 148.28 42.0755 148.293H81.2148C81.9418 139.318 80.3399 130.308 76.5645 122.135C72.7891 113.961 66.9681 106.902 59.6653 101.64L65.8877 90.8596C75.104 97.193 82.5104 105.821 87.376 115.893C92.2416 125.965 94.3981 137.132 93.6328 148.293H126.792C127.564 131.386 123.888 114.573 116.131 99.5332C108.374 84.4934 96.8082 71.7538 82.5886 62.5877L95.1682 41.0266C95.4485 40.5567 95.903 40.2166 96.4327 40.0803C96.9624 39.944 97.5245 40.0226 97.9966 40.2989C99.4242 41.0805 152.652 134.009 153.648 135.087C153.824 135.402 153.913 135.758 153.907 136.118C153.901 136.479 153.8 136.831 153.614 137.141C153.429 137.45 153.164 137.704 152.849 137.878C152.533 138.052 152.177 138.14 151.817 138.132H138.995C139.156 141.564 139.156 144.987 138.995 148.401H151.87C153.505 148.411 155.126 148.098 156.639 147.477C158.152 146.857 159.527 145.943 160.685 144.787C161.842 143.632 162.759 142.258 163.382 140.746C164.005 139.233 164.322 137.612 164.315 135.976C164.317 133.815 163.74 131.694 162.645 129.831L107.748 35.7981ZM364.511 105.925L324.752 54.5562H314.839V123.417H324.886V70.6461L365.777 123.417H374.558V54.5562H364.511V105.925ZM264.386 93.1505H300.024V84.2026H264.359V63.4771H304.576V54.5292H254.123V123.417H305.088V114.469H264.359L264.386 93.1505ZM222.472 84.4183C208.6 81.0763 204.721 78.4351 204.721 72.0206C204.721 66.2531 209.812 62.3451 217.408 62.3451C224.326 62.5478 230.998 64.9557 236.452 69.2177L241.84 61.5905C234.935 56.1746 226.368 53.3176 217.597 53.5051C203.966 53.5051 194.458 61.5905 194.458 73.0987C194.458 85.4963 202.539 89.7816 217.246 93.3661C230.338 96.3846 234.351 99.1876 234.351 105.467C234.351 111.747 228.964 115.628 220.64 115.628C212.354 115.59 204.38 112.456 198.283 106.842L192.222 114.092C200.032 120.806 209.993 124.488 220.29 124.468C235.052 124.468 244.534 116.517 244.534 104.227C244.453 93.8243 238.311 88.2453 222.472 84.4183ZM556.787 54.5562L536.072 86.8978L515.492 54.5562H503.478L530.658 96.196V123.444H541.001V95.8726L568.369 54.5562H556.787ZM382.693 63.8813H405.239V123.444H415.583V63.8813H438.129V54.5562H382.72L382.693 63.8813ZM485.969 96.5463C496.367 93.6626 502.131 86.3857 502.131 75.9825C502.131 62.7494 492.461 54.4214 476.865 54.4214H446.264V123.39H456.5V98.6485H473.875L491.33 123.444H503.29L484.434 96.9776L485.969 96.5463ZM456.473 89.8085V63.6657H475.787C485.862 63.6657 491.626 68.4361 491.626 76.7102C491.626 84.9842 485.458 89.8085 475.895 89.8085H456.473Z" fill="white"/>
</svg>
