<svg width="447" height="89" viewBox="0 0 447 89" fill="none" xmlns="http://www.w3.org/2000/svg">
<g clip-path="url(#clip0_314_126)">
<path d="M102.029 89L51.016 0L0.00341797 89H102.029ZM153.48 84.9484L196.112 4.04548H177.672L148.264 62.7999L118.856 4.04548H100.415L143.047 84.9484H153.48ZM444.015 4.04548V84.9486H428.748V4.04548H444.015ZM359.037 54.7521C359.037 48.4471 360.349 42.9016 362.973 38.1158C365.597 33.33 369.255 29.6456 373.946 27.0628C378.636 24.48 384.123 23.1886 390.405 23.1886C395.971 23.1886 400.98 24.404 405.433 26.8349C409.884 29.2658 413.422 32.8742 416.046 37.66C418.67 42.4458 420.021 48.2952 420.102 55.2081V58.7403H375.139C375.456 63.7541 376.927 67.7044 379.551 70.591C382.255 73.4017 385.872 74.8071 390.405 74.8071C393.266 74.8071 395.89 74.0475 398.275 72.5282C400.661 71.0088 402.45 68.9577 403.643 66.3748L419.267 67.5144C417.358 73.2117 413.781 77.7697 408.533 81.1882C403.285 84.6066 397.242 86.3158 390.405 86.3158C384.123 86.3158 378.636 85.0244 373.946 82.4416C369.255 79.8588 365.597 76.1744 362.973 71.3886C360.349 66.6028 359.037 61.0573 359.037 54.7521ZM404.358 49.0547C403.802 44.117 402.251 40.5087 399.707 38.2298C397.163 35.8749 394.061 34.6973 390.405 34.6973C386.191 34.6973 382.772 35.9507 380.148 38.4576C377.524 40.9645 375.893 44.4969 375.258 49.0547H404.358ZM333.283 38.2298C335.827 40.2807 337.417 43.1296 338.053 46.7758L353.797 45.9783C353.239 41.3443 351.61 37.3182 348.908 33.8998C346.203 30.4813 342.704 27.8604 338.412 26.0373C334.197 24.1382 329.547 23.1886 324.457 23.1886C318.175 23.1886 312.69 24.48 307.999 27.0628C303.307 29.6456 299.651 33.33 297.027 38.1158C294.403 42.9016 293.091 48.4471 293.091 54.7521C293.091 61.0573 294.403 66.6028 297.027 71.3886C299.651 76.1744 303.307 79.8588 307.999 82.4416C312.69 85.0244 318.175 86.3158 324.457 86.3158C329.705 86.3158 334.476 85.3662 338.77 83.4671C343.062 81.492 346.562 78.7193 349.264 75.1489C351.968 71.5786 353.598 67.4004 354.154 62.6146L338.292 61.931C337.736 65.957 336.185 69.0717 333.641 71.2746C331.096 73.4017 328.035 74.4653 324.457 74.4653C319.528 74.4653 315.712 72.756 313.008 69.3375C310.305 65.919 308.952 61.0573 308.952 54.7521C308.952 48.4471 310.305 43.5854 313.008 40.1669C315.712 36.7484 319.528 35.0391 324.457 35.0391C327.876 35.0391 330.818 36.1027 333.283 38.2298ZM255.839 24.5532H270.044L270.456 36.1766C271.464 32.8865 272.866 30.3315 274.663 28.5117C277.266 25.8726 280.897 24.5532 285.553 24.5532H291.354V36.9942H285.435C282.12 36.9942 279.397 37.4466 277.266 38.3513C275.214 39.2562 273.636 40.6887 272.532 42.6491C271.505 44.6095 270.993 47.0978 270.993 50.1137V84.9484H255.839V24.5532ZM190.313 38.1158C187.689 42.9016 186.377 48.4471 186.377 54.7521C186.377 61.0573 187.689 66.6028 190.313 71.3886C192.937 76.1744 196.593 79.8588 201.285 82.4416C205.977 85.0244 211.462 86.3158 217.744 86.3158C224.582 86.3158 230.625 84.6066 235.873 81.1882C241.119 77.7697 244.699 73.2117 246.606 67.5144L230.981 66.3748C229.789 68.9577 228.001 71.0088 225.616 72.5282C223.231 74.0475 220.607 74.8071 217.744 74.8071C213.212 74.8071 209.594 73.4017 206.891 70.591C204.267 67.7044 202.797 63.7541 202.478 58.7403H247.44V55.2081C247.362 48.2952 246.011 42.4458 243.387 37.66C240.763 32.8742 237.224 29.2658 232.771 26.8349C228.318 24.404 223.309 23.1886 217.744 23.1886C211.462 23.1886 205.977 24.48 201.285 27.0628C196.593 29.6456 192.937 33.33 190.313 38.1158ZM227.047 38.2298C229.591 40.5087 231.142 44.117 231.698 49.0547H202.597C203.233 44.4969 204.863 40.9645 207.487 38.4576C210.111 35.9507 213.53 34.6973 217.744 34.6973C221.402 34.6973 224.502 35.8749 227.047 38.2298Z" fill="white"/>
</g>
<defs>
<clipPath id="clip0_314_126">
<rect width="447" height="89" fill="white"/>
</clipPath>
</defs>
</svg>
