<svg width="1594" height="527" viewBox="0 0 1594 527" fill="none" xmlns="http://www.w3.org/2000/svg">
<path fill-rule="evenodd" clip-rule="evenodd" d="M1318.7 337.7C1318.7 340.8 1315.6 342.4 1312.4 342.4H808.3C807.7 342.333 807.1 342.2 806.5 342C805.967 341.733 805.467 341.367 805 340.9C804.6 340.5 804.267 340 804 339.4C803.733 338.867 803.6 338.3 803.6 337.7C803.267 336.3 802.967 334.867 802.7 333.4C802.5 332 802.333 330.567 802.2 329.1C802.067 327.633 802 326.167 802 324.7C801.933 323.3 801.933 321.867 802 320.4C802 305.6 804.9 290.9 810.4 277.2C816 263.5 824.2 251 834.5 240.4C844.8 229.8 857.1 221.3 870.6 215.4C884.2 209.4 898.7 206.2 913.5 205.7C912.967 203.433 912.533 201.134 912.2 198.8C911.867 196.4 911.667 194.033 911.6 191.7C911.467 189.3 911.433 186.934 911.5 184.6C911.5 182.2 911.633 179.834 911.9 177.5C913 168.3 915.5 159.4 919.5 151.1C923.5 142.8 928.9 135.2 935.4 128.7C941.9 122.2 949.5 116.8 957.8 112.8C966.1 108.8 975 106.3 984.2 105.2C989.2 104.8 994.167 104.867 999.1 105.4C1004.1 105.867 1009 106.767 1013.8 108.1C1018.67 109.433 1023.33 111.167 1027.8 113.3C1032.33 115.5 1036.63 118.033 1040.7 120.9C1053.4 84.1002 1077.7 52.3002 1110 30.5002C1142.4 8.80016 1180.9 -1.89984 1219.8 0.300163C1258.8 2.40016 1295.9 17.2002 1325.7 42.4002C1355.4 67.5002 1376.1 101.7 1384.7 139.8C1386.3 141.4 1384.7 142.9 1384.7 144.5L1369 185.3C1365.6 193.4 1361.1 200.9 1355.7 207.8C1350.3 214.7 1344 220.8 1337 226C1330 231.3 1322.4 235.5 1314.2 238.7C1306.1 241.9 1297.6 244 1288.9 245L1014 248.2C1010.9 248.2 1009.3 249.7 1007.7 252.9C1007.37 253.167 1007.1 253.5 1006.9 253.9C1006.7 254.3 1006.6 254.733 1006.6 255.2C1006.6 255.667 1006.7 256.1 1006.9 256.5C1007.1 256.967 1007.37 257.333 1007.7 257.6C1009.3 257.6 1010.9 259.1 1012.5 259.1L1285.7 262.3C1288.9 262.567 1292.03 263.167 1295.1 264.1C1298.17 264.967 1301.13 266.133 1304 267.6C1306.8 269.133 1309.43 270.9 1311.9 272.9C1314.43 274.9 1316.7 277.133 1318.7 279.6C1320.7 282.5 1322.3 285.7 1323.6 289.1C1324.8 292.4 1325.6 295.9 1326 299.4C1326.4 302.9 1326.4 306.5 1326 310.1C1325.6 313.6 1324.7 317.1 1323.4 320.4L1318.7 337.7ZM1466.8 156.1C1484.8 163.6 1501.2 174.6 1515 188.5C1528.9 202.3 1539.9 218.7 1547.4 236.7C1555 254.8 1558.9 274.1 1559 293.7C1558.93 297.167 1558.73 300.6 1558.4 304C1558.07 307.467 1557.63 310.9 1557.1 314.3C1556.57 317.7 1555.93 321.1 1555.2 324.5C1554.47 327.833 1553.63 331.167 1552.7 334.5C1552.83 335.167 1552.8 335.8 1552.6 336.4C1552.4 337.067 1552.07 337.633 1551.6 338.1C1551.13 338.567 1550.57 338.9 1549.9 339.1C1549.3 339.3 1548.67 339.333 1548 339.2H1340.7C1337.6 339.2 1336 336.1 1337.6 334.5L1340.7 320.4C1344.1 312.4 1348.6 304.8 1354 297.9C1359.4 291 1365.7 284.9 1372.7 279.7C1379.7 274.5 1387.3 270.2 1395.5 267C1403.6 263.8 1412.1 261.7 1420.8 260.7L1480.5 257.6C1483.6 257.6 1485.2 256 1486.8 252.9C1487.13 252.567 1487.4 252.2 1487.6 251.8C1487.87 251.4 1488 250.967 1488 250.5C1488 250.034 1487.87 249.6 1487.6 249.2C1487.4 248.8 1487.13 248.467 1486.8 248.2C1485.2 248.2 1483.6 246.6 1482.1 246.6L1424 243.4C1420.8 243.133 1417.67 242.567 1414.6 241.7C1411.53 240.767 1408.57 239.567 1405.7 238.1C1402.9 236.634 1400.27 234.9 1397.8 232.9C1395.27 230.833 1393 228.6 1391 226.2C1389 223.2 1387.4 220 1386.1 216.7C1384.9 213.3 1384.1 209.9 1383.7 206.3C1383.3 202.8 1383.3 199.2 1383.7 195.7C1384.1 192.1 1385 188.7 1386.3 185.3L1397.3 147.6C1398.8 146.1 1400.4 144.5 1402 144.5H1409.8C1429.4 144.6 1448.7 148.6 1466.8 156.1ZM1579.4 427.2C1573.7 427.2 1568.6 423.8 1566.4 418.5C1564.2 413.2 1565.4 407.1 1569.4 403.1C1573.5 399 1579.6 397.8 1584.9 400C1590.1 402.2 1593.6 407.3 1593.6 413.1C1593.6 414.9 1593.2 416.8 1592.5 418.5C1591.8 420.2 1590.8 421.8 1589.5 423.1C1588.1 424.4 1586.6 425.4 1584.9 426.1C1583.1 426.8 1581.3 427.2 1579.4 427.2ZM1579.4 402.1C1575 402.1 1571 404.7 1569.3 408.9C1567.6 413 1568.5 417.7 1571.7 420.8C1574.8 424 1579.5 424.9 1583.6 423.2C1587.8 421.5 1590.4 417.5 1590.4 413.1C1590.5 411.6 1590.2 410.2 1589.7 408.8C1589.1 407.5 1588.3 406.2 1587.3 405.2C1586.3 404.2 1585 403.4 1583.7 402.8C1582.3 402.3 1580.9 402 1579.4 402.1ZM1585.7 420.9H1582.6L1579.4 416.2H1576.3V420.9H1573.2V406.8H1581C1581.67 406.667 1582.3 406.733 1582.9 407C1583.5 407.2 1584.03 407.533 1584.5 408C1584.97 408.467 1585.33 409 1585.6 409.6C1585.8 410.2 1585.83 410.833 1585.7 411.5C1585.7 413.1 1584.2 414.6 1582.6 416.2L1585.7 420.9ZM1581 413.1C1582.5 413.1 1582.5 413.1 1582.5 411.5C1582.5 411.3 1582.47 411.1 1582.4 410.9C1582.33 410.7 1582.23 410.533 1582.1 410.4C1581.97 410.2 1581.8 410.067 1581.6 410C1581.4 409.933 1581.2 409.9 1581 409.9H1576.3V414.6H1581V413.1ZM172.2 399H206.7V493.2H266.4V523.1H172.2V399ZM302.5 460.2C302.5 451.5 304.3 442.9 307.7 434.8C311.2 426.8 316.2 419.6 322.5 413.6C328.8 407.5 336.3 402.9 344.5 399.8C352.6 396.8 361.3 395.4 370 395.8C378.7 395.4 387.3 396.8 395.4 399.9C403.5 403 410.8 407.7 417 413.7C423.2 419.8 428.1 427 431.3 435C434.6 443 436.2 451.6 436 460.2C436 468.9 434.2 477.6 430.8 485.6C427.4 493.6 422.3 500.9 416 506.9C409.7 512.9 402.2 517.6 394.1 520.6C385.9 523.7 377.2 525 368.5 524.6C359.9 524.9 351.3 523.4 343.3 520.3C335.3 517.1 328 512.4 321.8 506.4C315.7 500.4 310.8 493.2 307.5 485.3C304.1 477.3 302.5 468.8 302.5 460.2ZM401.5 460.2C401.8 455.9 401.2 451.5 399.8 447.4C398.3 443.2 396.1 439.5 393.1 436.2C390.2 433 386.6 430.4 382.7 428.6C378.7 426.8 374.4 425.8 370 425.7C361.6 426.1 353.6 429.7 347.7 435.9C341.9 442 338.6 450.2 338.6 458.6C338.6 467.1 341.9 475.3 347.7 481.4C353.6 487.6 361.6 491.2 370 491.6C388.9 494.8 401.5 479.1 401.5 460.2ZM478.4 468.1V399H513V468.1C513 485.3 522.4 494.8 536.5 494.8C539.8 495 543.2 494.6 546.2 493.4C549.3 492.2 552.1 490.3 554.4 487.9C556.6 485.5 558.3 482.6 559.3 479.4C560.3 476.3 560.6 472.9 560.1 469.6V399H594.6V468.1C594.6 508.9 571.1 526.2 536.5 526.2C500.4 524.6 478.4 507.3 478.4 468.1ZM695.2 399C739.1 399 765.8 424.1 765.8 460.2C765.8 496.3 739.1 523 695.2 523H648V399H695.2ZM695.2 491.6C704.1 492.5 712.9 489.5 719.5 483.6C726 477.6 729.8 469.1 729.8 460.2C729.8 451.3 726 442.8 719.5 436.9C712.9 430.9 704.1 428 695.2 428.8H681.1V491.6H695.2ZM814.6 399H913.5V428.8H849.1V449.2H907.2V477.5H849.1V523H814.6V399ZM962.2 399H996.8V493.3H1056.4V523.1H962.2V399ZM1146 397.4H1180.5L1233.9 523.1H1196.2L1186.8 501.1H1138.1L1128.7 523.1H1092.6L1146 397.4ZM1177.4 474.4L1163.2 439.8L1149.1 474.4H1177.4ZM1277.9 399H1336C1339.73 398.667 1343.43 398.733 1347.1 399.2C1350.83 399.667 1354.43 400.5 1357.9 401.7C1361.43 402.967 1364.8 404.533 1368 406.4C1371.2 408.333 1374.17 410.567 1376.9 413.1C1381.4 418 1384.6 423.8 1386.4 430.2C1388.1 436.6 1388.3 443.3 1387 449.8C1385.6 456.2 1382.6 462.3 1378.4 467.4C1374.2 472.5 1368.8 476.5 1362.7 479.1L1392.6 523H1353.3L1328.2 485.3H1312.5V523H1277.9V399ZM1334.5 458.7C1345.5 458.7 1353.3 452.4 1353.3 444.6C1353.3 435.2 1345.5 430.5 1334.5 430.5H1312.5V460.3H1334.5V458.7ZM1436.6 399H1537.1V427.3H1471.1V446.1H1530.8V474.4H1471.1V493.2H1538.6V523.1H1436.6V399ZM133 475.9C131 483.1 127.9 490 123.8 496.2C119.6 502.4 114.5 507.8 108.6 512.3C102.6 516.9 96 520.4 88.9 522.7C81.9 525.1 74.5 526.3 67 526.2C58.4 526.5 49.8 525 41.8 521.9C33.8 518.7 26.5 514 20.3 508C14.2 502 9.3 494.8 6 486.9C2.7 478.9 1 470.4 1 461.8C1.2 453.1 3 444.6 6.5 436.6C10 428.6 15 421.4 21.3 415.5C27.6 409.5 35 404.8 43.1 401.7C51.2 398.6 59.9 397.1 68.6 397.4C76.2 397.1 83.8 398.2 91 400.6C98.3 402.9 105.1 406.5 111 411.3C117 416 122.2 421.7 126.2 428.2C130.2 434.6 133 441.8 134.5 449.2H98.4C97.2 446.3 95.6 443.5 93.5 441C91.5 438.6 89.2 436.4 86.5 434.6C83.9 432.8 81 431.4 78 430.4C74.9 429.4 71.8 428.9 68.6 428.8C60.1 429.2 52.1 432.9 46.3 439C40.4 445.2 37.2 453.3 37.2 461.8C37.2 470.3 40.4 478.4 46.3 484.6C52.1 490.7 60.1 494.4 68.6 494.8C71.6 494.8 74.6 494.3 77.4 493.4C80.3 492.5 83 491.2 85.5 489.6C88 487.9 90.3 485.9 92.2 483.6C94.1 481.3 95.7 478.7 96.8 475.9H133Z" fill="#FAAD3F"/>
</svg>
