<svg width="1154" height="107" viewBox="0 0 1154 107" fill="none" xmlns="http://www.w3.org/2000/svg">
<path d="M214.883 26.5283H202.192L173.771 50.4403V26.5283H163.562V78.7695H173.771V61.8455L184.44 53.3841L206.605 78.7695H219.851L191.797 46.5778L214.883 26.5283Z" fill="#B0B0B0"/>
<path d="M250.675 26.5283H240.465V78.7695H284.705V69.6642H250.675V26.5283Z" fill="#B0B0B0"/>
<path d="M314.347 56.0523H335.685V47.0377H314.347V35.6335H349.573V26.5283H304.137V78.7695H351.689V69.6627H314.347V56.0523Z" fill="#B0B0B0"/>
<path d="M377.256 78.7695H387.465V26.5283H377.256V78.7695Z" fill="#B0B0B0"/>
<path d="M458.741 62.1215H458.649L427.379 26.5283H418.365V78.7695H428.575V43.1747H428.667L459.937 78.7695H468.951V26.5283H458.741V62.1215Z" fill="#B0B0B0"/>
<path d="M510.06 56.0523H531.4V47.0377H510.06V35.6335H545.286V26.5283H499.854V78.7695H547.403V69.6627H510.06V56.0523Z" fill="#B0B0B0"/>
<path d="M605.16 50.3481H583.179V35.6319H603.688C607.183 35.6319 610.311 35.9081 612.701 38.5762C613.805 39.7737 614.541 41.3377 614.541 42.9923C614.541 46.9471 610.311 50.3481 605.16 50.3481ZM624.751 42.8986C624.751 38.8523 623.095 35.1747 620.333 32.3231C616.932 28.8283 611.873 26.5283 603.688 26.5283H572.969V78.7695H583.179V59.3627H602.124L613.897 78.7695H625.669L612.608 57.8909C619.6 55.5923 624.751 50.0721 624.751 42.8986Z" fill="#B0B0B0"/>
<path d="M717.459 47.6814C715.436 49.6138 712.86 50.3481 708.629 50.3481H688.119V35.6319H708.905C711.481 35.6319 715.159 35.7257 717.735 38.4857C718.839 39.6789 719.483 41.2429 719.483 42.9923C719.483 44.7377 718.747 46.395 717.459 47.6814ZM708.905 26.5283H677.911V78.7695H688.119V59.3627H708.629C715.987 59.3627 721.137 57.7986 725.185 53.7533C727.943 50.9934 729.691 47.4975 729.691 42.9923C729.691 38.7617 728.128 34.9898 725.275 32.1377C721.045 27.8163 715.252 26.5283 708.905 26.5283Z" fill="#B0B0B0"/>
<path d="M761.712 56.1104H783.05V47.0959H761.712V35.6907H796.938V26.5855H751.502V78.8281H799.052V69.7213H761.712V56.1104Z" fill="#B0B0B0"/>
<path d="M856.811 50.4069H834.829V35.6908H855.337C858.832 35.6908 861.961 35.9668 864.352 38.6351C865.455 39.8308 866.192 41.396 866.192 43.0496C866.192 47.0043 861.961 50.4069 856.811 50.4069ZM876.399 42.9575C876.399 38.9111 874.745 35.2335 871.985 32.3804C868.583 28.8856 863.524 26.5856 855.337 26.5856H824.619V78.8267H834.829V59.4215H853.775L865.548 78.8267H877.32L864.26 57.948C871.251 55.6496 876.399 50.1308 876.399 42.9575Z" fill="#B0B0B0"/>
<path d="M954.199 26.5856H941.507L913.087 50.5001V26.5856H902.88V78.8267H913.087V61.9028L923.756 53.4428L945.922 78.8267H959.166L931.114 46.6361L954.199 26.5856Z" fill="#B0B0B0"/>
<path d="M979.75 78.8267H989.958V26.5856H979.75V78.8267Z" fill="#B0B0B0"/>
<path d="M1061.24 62.1788H1061.15L1029.88 26.5856H1020.86V78.8267H1031.07V43.2335H1031.16L1062.43 78.8267H1071.45V26.5856H1061.24V62.1788Z" fill="#B0B0B0"/>
<path d="M1127.42 46.1758C1119.14 45.6238 1111.14 45.441 1111.14 40.381C1111.14 35.4144 1116.57 33.6681 1123.1 33.6681C1133.4 33.6681 1140.66 36.9785 1143.7 39.5545L1149.95 32.4706C1145.45 29.1613 1135.33 24.7468 1123.47 24.7468C1113.16 24.7468 1100.84 28.516 1100.84 41.2998C1100.84 54.2706 1115 55.1894 1127.42 56.1102C1137.26 56.8452 1142.96 58.317 1142.96 64.2025C1142.96 69.4452 1136.8 71.7441 1128.89 71.7441C1116.38 71.7441 1108.47 66.0425 1103.97 62.3638L1097.81 69.4452C1104.15 74.781 1113.81 80.6665 1128.71 80.6665C1142.04 80.6665 1153.27 75.6998 1153.27 62.8238C1153.27 47.8316 1137.44 46.8196 1127.42 46.1758Z" fill="#B0B0B0"/>
<path d="M8.88907 0.000165939C3.97969 0.000165939 0 3.97883 0 8.88977V53.3335L53.3333 0.000165939H8.88907Z" fill="#B0B0B0"/>
<path d="M0 97.7769C0 102.686 3.97969 106.667 8.88907 106.667H53.3333L0 53.3332V97.7769Z" fill="#B0B0B0"/>
<path d="M53.3335 62.2228V106.667L106.667 53.3332H62.2226C57.3132 53.3332 53.3335 57.3118 53.3335 62.2228Z" fill="#B0B0B0"/>
<path d="M97.7783 0.000165939H53.3335L106.667 53.3335V8.88977C106.667 3.97883 102.687 0.000165939 97.7783 0.000165939Z" fill="#B0B0B0"/>
</svg>
