<?xml version="1.0" encoding="UTF-8" standalone="no"?>
<!-- Created with Inkscape (http://www.inkscape.org/) -->

<svg
   version="1.1"
   id="svg1"
   width="1158.08"
   height="393.70667"
   viewBox="0 0 1158.08 393.70667"
   sodipodi:docname="kleiner-perkins-white-rgb.eps"
   xmlns:inkscape="http://www.inkscape.org/namespaces/inkscape"
   xmlns:sodipodi="http://sodipodi.sourceforge.net/DTD/sodipodi-0.dtd"
   xmlns="http://www.w3.org/2000/svg"
   xmlns:svg="http://www.w3.org/2000/svg">
  <defs
     id="defs1" />
  <sodipodi:namedview
     id="namedview1"
     pagecolor="#ffffff"
     bordercolor="#000000"
     borderopacity="0.25"
     inkscape:showpageshadow="2"
     inkscape:pageopacity="0.0"
     inkscape:pagecheckerboard="0"
     inkscape:deskcolor="#d1d1d1">
    <inkscape:page
       x="0"
       y="0"
       inkscape:label="1"
       id="page1"
       width="1158.08"
       height="393.70667"
       margin="0"
       bleed="0" />
  </sodipodi:namedview>
  <g
     id="g1"
     inkscape:groupmode="layer"
     inkscape:label="1">
    <g
       id="group-R5">
      <path
         id="path2"
         d="m 1611.62,601.039 h -95.18 l -213.16,-179.34 v 179.34 h -76.56 V 209.23 h 76.56 v 126.93 l 80.02,63.461 166.24,-190.391 h 99.34 l -210.4,241.438 173.14,150.371"
         style="fill:#ffffff;fill-opacity:1;fill-rule:nonzero;stroke:none"
         transform="matrix(0.13333333,0,0,-0.13333333,0,393.70667)" />
      <path
         id="path3"
         d="m 1880.06,601.039 h -76.57 V 209.23 h 331.8 v 68.29 h -255.23 v 323.519"
         style="fill:#ffffff;fill-opacity:1;fill-rule:nonzero;stroke:none"
         transform="matrix(0.13333333,0,0,-0.13333333,0,393.70667)" />
      <path
         id="path4"
         d="m 2357.6,379.609 h 160.04 v 67.61 H 2357.6 v 85.531 h 264.2 v 68.289 H 2281.03 V 209.23 h 356.64 v 68.301 H 2357.6 v 102.078"
         style="fill:#ffffff;fill-opacity:1;fill-rule:nonzero;stroke:none"
         transform="matrix(0.13333333,0,0,-0.13333333,0,393.70667)" />
      <path
         id="path5"
         d="m 2829.42,209.23 h 76.57 v 391.809 h -76.57 V 209.23"
         style="fill:#ffffff;fill-opacity:1;fill-rule:nonzero;stroke:none"
         transform="matrix(0.13333333,0,0,-0.13333333,0,393.70667)" />
      <path
         id="path6"
         d="m 3440.56,334.09 h -0.69 l -234.53,266.949 h -67.6 V 209.23 h 76.57 V 476.191 H 3215 L 3449.53,209.23 h 67.6 v 391.809 h -76.57 V 334.09"
         style="fill:#ffffff;fill-opacity:1;fill-rule:nonzero;stroke:none"
         transform="matrix(0.13333333,0,0,-0.13333333,0,393.70667)" />
      <path
         id="path7"
         d="m 3825.45,379.609 h 160.05 v 67.61 h -160.05 v 85.531 h 264.19 v 68.289 H 3748.9 V 209.23 h 356.62 v 68.301 h -280.07 v 102.078"
         style="fill:#ffffff;fill-opacity:1;fill-rule:nonzero;stroke:none"
         transform="matrix(0.13333333,0,0,-0.13333333,0,393.70667)" />
      <path
         id="path8"
         d="m 4538.7,422.391 h -164.86 v 110.371 h 153.82 c 26.21,0 49.67,-2.071 67.6,-22.082 8.28,-8.981 13.8,-20.711 13.8,-33.121 0,-29.661 -31.73,-55.168 -70.36,-55.168 z m 146.93,55.871 c 0,30.347 -12.42,57.929 -33.13,79.316 -25.51,26.211 -63.45,43.461 -124.84,43.461 H 4297.27 V 209.23 h 76.57 v 145.551 h 142.09 l 88.3,-145.551 h 88.29 l -97.96,156.59 c 52.44,17.239 91.07,58.641 91.07,112.442"
         style="fill:#ffffff;fill-opacity:1;fill-rule:nonzero;stroke:none"
         transform="matrix(0.13333333,0,0,-0.13333333,0,393.70667)" />
      <path
         id="path9"
         d="m 5380.94,442.391 c -15.17,-14.493 -34.49,-20 -66.22,-20 h -153.83 v 110.371 h 155.9 c 19.32,0 46.9,-0.703 66.22,-21.403 8.28,-8.949 13.11,-20.679 13.11,-33.8 0,-13.09 -5.52,-25.52 -15.18,-35.168 z m -64.15,158.648 H 5084.33 V 209.23 h 76.56 v 145.551 h 153.83 c 55.18,0 93.81,11.731 124.17,42.071 20.68,20.699 33.79,46.918 33.79,80.707 0,31.73 -11.72,60.019 -33.12,81.41 -31.72,32.41 -75.17,42.07 -122.77,42.07"
         style="fill:#ffffff;fill-opacity:1;fill-rule:nonzero;stroke:none"
         transform="matrix(0.13333333,0,0,-0.13333333,0,393.70667)" />
      <path
         id="path10"
         d="m 5712.84,379.172 h 160.04 v 67.609 h -160.04 v 85.539 h 264.2 v 68.289 h -340.77 v -391.82 h 356.62 v 68.301 h -280.05 v 102.082"
         style="fill:#ffffff;fill-opacity:1;fill-rule:nonzero;stroke:none"
         transform="matrix(0.13333333,0,0,-0.13333333,0,393.70667)" />
      <path
         id="path11"
         d="M 6426.08,421.949 H 6261.22 V 532.32 h 153.81 c 26.21,0 49.68,-2.07 67.61,-22.082 8.27,-8.968 13.8,-20.707 13.8,-33.109 0,-29.66 -31.73,-55.18 -70.36,-55.18 z m 146.91,55.871 c 0,30.348 -12.4,57.93 -33.1,79.328 -25.52,26.211 -63.46,43.461 -124.86,43.461 H 6184.64 V 208.801 h 76.58 V 354.34 h 142.09 l 88.3,-145.539 h 88.29 l -97.95,156.59 c 52.43,17.238 91.04,58.629 91.04,112.429"
         style="fill:#ffffff;fill-opacity:1;fill-rule:nonzero;stroke:none"
         transform="matrix(0.13333333,0,0,-0.13333333,0,393.70667)" />
      <path
         id="path12"
         d="M 7156.49,600.609 H 7061.3 L 6848.15,421.25 V 600.609 H 6771.6 V 208.801 h 76.55 V 335.73 l 80.02,63.45 166.24,-190.379 h 99.33 l -210.39,241.429 173.14,150.379"
         style="fill:#ffffff;fill-opacity:1;fill-rule:nonzero;stroke:none"
         transform="matrix(0.13333333,0,0,-0.13333333,0,393.70667)" />
      <path
         id="path13"
         d="m 7348.13,208.801 h 76.56 v 391.808 h -76.56 V 208.801"
         style="fill:#ffffff;fill-opacity:1;fill-rule:nonzero;stroke:none"
         transform="matrix(0.13333333,0,0,-0.13333333,0,393.70667)" />
      <path
         id="path14"
         d="m 7959.27,333.66 h -0.68 l -234.53,266.949 h -67.6 V 208.801 h 76.56 V 475.75 h 0.7 l 234.53,-266.949 h 67.59 v 391.808 h -76.57 V 333.66"
         style="fill:#ffffff;fill-opacity:1;fill-rule:nonzero;stroke:none"
         transform="matrix(0.13333333,0,0,-0.13333333,0,393.70667)" />
      <path
         id="path15"
         d="m 8455.65,453.68 c -62.08,4.14 -122.09,5.511 -122.09,43.461 0,37.25 40.7,50.347 89.68,50.347 77.25,0 131.73,-24.828 154.51,-44.148 l 46.9,53.129 c -33.81,24.82 -109.68,57.929 -198.66,57.929 -77.26,0 -169.7,-28.269 -169.7,-124.148 0,-97.281 106.23,-104.172 199.36,-111.078 73.81,-5.512 116.58,-16.551 116.58,-60.692 0,-39.32 -46.22,-56.562 -105.55,-56.562 -93.8,0 -153.13,42.762 -186.92,70.352 l -46.22,-53.11 c 47.6,-40.019 120.02,-84.16 231.77,-84.16 100.02,0 184.18,37.25 184.18,133.82 0,112.442 -118.66,120.032 -193.84,124.86"
         style="fill:#ffffff;fill-opacity:1;fill-rule:nonzero;stroke:none"
         transform="matrix(0.13333333,0,0,-0.13333333,0,393.70667)" />
      <path
         id="path16"
         d="M 66.668,800 C 29.8477,800 0,770.16 0,733.328 V 400 L 400,800 H 66.668"
         style="fill:#ffffff;fill-opacity:1;fill-rule:nonzero;stroke:none"
         transform="matrix(0.13333333,0,0,-0.13333333,0,393.70667)" />
      <path
         id="path17"
         d="M 0,66.6719 C 0,29.8516 29.8477,0 66.668,0 H 400 L 0,400 V 66.6719"
         style="fill:#ffffff;fill-opacity:1;fill-rule:nonzero;stroke:none"
         transform="matrix(0.13333333,0,0,-0.13333333,0,393.70667)" />
      <path
         id="path18"
         d="M 400,333.328 V 0 L 800,400 H 466.668 C 429.848,400 400,370.16 400,333.328"
         style="fill:#ffffff;fill-opacity:1;fill-rule:nonzero;stroke:none"
         transform="matrix(0.13333333,0,0,-0.13333333,0,393.70667)" />
      <path
         id="path19"
         d="M 733.336,800 H 400 L 800,400 V 733.328 C 800,770.16 770.152,800 733.336,800"
         style="fill:#ffffff;fill-opacity:1;fill-rule:nonzero;stroke:none"
         transform="matrix(0.13333333,0,0,-0.13333333,0,393.70667)" />
    </g>
  </g>
</svg>
