<svg width="417" height="137" viewBox="0 0 417 137" fill="none" xmlns="http://www.w3.org/2000/svg">
<g clip-path="url(#clip0_333_107)">
<mask id="mask0_333_107" style="mask-type:luminance" maskUnits="userSpaceOnUse" x="0" y="0" width="417" height="137">
<path d="M416.86 0H0V136.159H416.86V0Z" fill="white"/>
</mask>
<g mask="url(#mask0_333_107)">
<path d="M404.893 53.0838L398.945 41.4401L396.157 44.3385L394.292 53.0838H388.549L394.498 24.6408H400.24L397.697 36.8342L409.459 24.6408H416.86L403.353 37.9919L411.647 53.0838H404.893ZM372 53.0725L364.399 33.9661L360.915 53.0725H355.967L361.092 24.7529H366.182L373.565 43.1793L376.948 24.7529H381.895L376.771 53.0725H372ZM337.926 52.9878L343.601 24.6194H349.08L343.404 52.9878H337.926ZM311.228 52.7992L317.26 24.8957H323.084L318.206 47.5699H329.733L328.619 52.7992H311.228ZM227.949 53.6423C224.578 53.6423 221.964 52.757 220.109 50.9864C218.254 49.2157 217.326 46.8004 217.326 43.7406C217.326 43.0323 217.388 42.3959 217.512 41.8315L220.731 24.7918H226.004L222.82 41.6656C222.72 41.9478 222.67 42.4153 222.67 43.0682C222.67 44.5954 223.152 45.8542 224.115 46.8447C225.083 47.8351 226.361 48.3304 227.949 48.3304C231.316 48.3304 233.415 46.1088 234.245 41.6656L237.471 24.7918H242.779L239.524 41.79C238.694 45.9566 237.333 48.975 235.439 50.8453C233.546 52.71 231.049 53.6423 227.949 53.6423ZM297.139 53.2525L296.522 48.4017H286.131L283.699 53.2525H277.563L292.273 24.6419H298.735L302.728 53.2525H297.139ZM294.628 30.7326L288.564 43.0399H296.082L294.628 30.7326ZM264.265 52.9984L261.238 42.9195H257.019L255.018 52.9984H249.57L255.213 24.6228H266.146C268.399 24.6228 270.28 25.3817 271.789 26.8995C273.297 28.4173 274.052 30.3256 274.052 32.6245C274.052 35.1449 273.36 37.3136 271.976 39.1305C270.597 40.9474 268.859 42.0664 266.761 42.4874L270.29 52.9984H264.265ZM263.808 37.6016C265.242 37.6016 266.353 37.1917 267.143 36.3719C267.937 35.5465 268.334 34.4941 268.334 33.2144C268.334 32.2506 268.007 31.464 267.352 30.8547C266.703 30.2453 265.956 29.9406 265.112 29.9406H259.627L258.09 37.6016H263.808ZM188.935 53.0603L194.478 24.4219H212.271L211.211 29.789H198.814L197.643 35.8437H209.783L208.723 41.2108H196.591L195.346 47.6933H207.743L206.728 53.0603H188.935ZM172.022 52.9768L164.557 33.9014L161.135 52.9768H156.276L161.308 24.7031H166.308L173.559 43.0997L176.881 24.7031H181.74L176.707 52.9768H172.022Z" fill="#B6C8DB"/>
<path d="M0 87.1212H118.469L117.563 80.6799H16.0433L88.2511 11.0796C98.1513 1.17939 115.635 7.59042 118.524 23.3767C123.714 55.9994 127.83 90.7205 132.235 124.117C134.516 136.776 148.074 139.715 156.098 131.691L206.52 80.7107H140.68L141.559 87.0388H191.422L152.098 126.675C146.625 132.148 140.105 131.955 137.637 122.746L123.916 20.6366C120.763 2.22528 98.5656 -7.05452 83.9201 6.33979L0 87.1212Z" fill="#B6C8DB"/>
</g>
</g>
<defs>
<clipPath id="clip0_333_107">
<rect width="417" height="137" fill="white"/>
</clipPath>
</defs>
</svg>
