<svg width="417" height="137" viewBox="0 0 417 137" fill="none" xmlns="http://www.w3.org/2000/svg">
<g clip-path="url(#clip0_314_113)">
<path d="M404.893 53.084L398.945 41.4403L396.157 44.3387L394.292 53.084H388.549L394.498 24.641H400.24L397.697 36.8344L409.459 24.641H416.86L403.353 37.9921L411.647 53.084H404.893ZM372 53.0727L364.399 33.9663L360.915 53.0727H355.967L361.092 24.7531H366.182L373.565 43.1795L376.948 24.7531H381.895L376.771 53.0727H372ZM337.926 52.988L343.601 24.6196H349.08L343.404 52.988H337.926ZM311.228 52.7994L317.26 24.8959H323.084L318.206 47.5701H329.733L328.619 52.7994H311.228ZM227.949 53.6425C224.578 53.6425 221.964 52.7572 220.109 50.9866C218.254 49.2159 217.326 46.8006 217.326 43.7408C217.326 43.0325 217.388 42.3961 217.512 41.8317L220.731 24.792H226.004L222.82 41.6658C222.72 41.948 222.67 42.4155 222.67 43.0684C222.67 44.5956 223.152 45.8544 224.115 46.8449C225.083 47.8353 226.361 48.3306 227.949 48.3306C231.316 48.3306 233.415 46.109 234.245 41.6658L237.471 24.792H242.779L239.524 41.7902C238.694 45.9568 237.333 48.9752 235.439 50.8455C233.546 52.7102 231.049 53.6425 227.949 53.6425ZM297.139 53.2527L296.522 48.4019H286.131L283.699 53.2527H277.563L292.273 24.6421H298.735L302.728 53.2527H297.139ZM294.628 30.7328L288.564 43.0401H296.082L294.628 30.7328ZM264.265 52.9986L261.238 42.9197H257.019L255.018 52.9986H249.57L255.213 24.623H266.146C268.399 24.623 270.28 25.3819 271.789 26.8997C273.297 28.4175 274.052 30.3258 274.052 32.6247C274.052 35.1451 273.36 37.3138 271.976 39.1307C270.597 40.9476 268.859 42.0666 266.761 42.4876L270.29 52.9986H264.265ZM263.808 37.6018C265.242 37.6018 266.353 37.1919 267.143 36.3721C267.937 35.5467 268.334 34.4943 268.334 33.2146C268.334 32.2508 268.007 31.4642 267.352 30.8549C266.703 30.2455 265.956 29.9408 265.112 29.9408H259.627L258.09 37.6018H263.808ZM188.935 53.0605L194.478 24.4221H212.271L211.211 29.7892H198.814L197.643 35.8439H209.783L208.723 41.211H196.591L195.346 47.6935H207.743L206.728 53.0605H188.935ZM172.022 52.977L164.557 33.9016L161.135 52.977H156.276L161.308 24.7033H166.308L173.559 43.0999L176.881 24.7033H181.74L176.707 52.977H172.022Z" fill="white"/>
<path d="M0 87.1212H118.469L117.563 80.6799H16.0433L88.2511 11.0796C98.1513 1.17939 115.635 7.59042 118.524 23.3767C123.714 55.9994 127.83 90.7205 132.235 124.117C134.516 136.776 148.074 139.715 156.098 131.691L206.52 80.7107H140.68L141.559 87.0388H191.422L152.098 126.675C146.625 132.148 140.105 131.955 137.637 122.746L123.916 20.6366C120.763 2.22528 98.5656 -7.05452 83.9201 6.33979L0 87.1212Z" fill="white"/>
</g>
<defs>
<clipPath id="clip0_314_113">
<rect width="416.86" height="136.159" fill="white"/>
</clipPath>
</defs>
</svg>
