<svg width="811" height="100" viewBox="0 0 811 100" fill="none" xmlns="http://www.w3.org/2000/svg">
<g clip-path="url(#clip0_333_114)">
<path d="M188.85 36.8906H120.443L118 38.8453V99.6778H136.812V76.7126L138.522 75.0028H188.849C201.553 75.0028 207.416 71.5829 207.416 62.7879V48.8623C207.417 40.3109 201.553 36.8906 188.85 36.8906ZM188.85 59.3667C188.85 63.5196 186.162 64.2525 180.054 64.2525H138.766L136.812 62.5427V49.5946L138.522 47.8845H180.054C185.917 47.8845 188.849 48.6174 188.849 52.7703L188.85 59.3667ZM242.109 48.3728L258.477 72.3148L257.5 74.5138H221.342L212.059 85.9963H265.806L269.715 88.1949L278.022 99.6774H299.765L252.125 36.1577M457.832 87.4619V70.3608L459.786 68.6503H496.188V57.9007H438.531V99.6774H523.551V88.9278H460.031M438.531 36.8906H524.283V48.6174H438.531V36.8906ZM343.008 48.1286H412.146C411.169 39.3337 405.55 36.8906 391.869 36.8906H342.275C326.639 36.8906 321.753 39.8225 321.753 51.7931V85.0188C321.753 96.7459 326.639 99.922 342.275 99.922H391.869C405.794 99.922 411.169 97.2344 411.658 88.1949H343.008L341.053 86.2402V49.5946M71.5818 61.3214H21.4989L20.033 59.6116V48.862L21.4989 47.6405H89.1719L90.1491 45.4417C87.9502 39.5779 81.8426 36.6467 70.8488 36.6467H23.6975C8.06197 36.6467 3.17575 39.5783 3.17575 51.5489V58.6341C3.17575 70.3612 8.06197 73.5372 23.6975 73.5372H73.7807L75.2463 75.0025V86.2405L74.0249 87.951H1.70982C1.70982 87.951 0 88.9279 0 89.1724C1.22139 97.4789 6.84058 99.6774 20.2772 99.6774H71.5821C87.2176 99.6774 92.3483 96.7459 92.3483 84.7749V76.2239C92.348 64.4974 87.2176 61.3214 71.5818 61.3214ZM578.275 36.6464H549.936L548.47 39.5779L579.741 62.5431C585.605 59.1225 592.201 55.7025 599.041 52.2819M603.683 79.6445L631.29 99.6774H659.63L660.851 96.9898L619.807 66.9402C614.433 71.0931 608.814 75.2467 603.683 79.6445Z" fill="#0098FF"/>
<path d="M574.122 99.6773H548.47L546.271 96.2567C563.617 79.3998 641.306 7.57353 810.123 0C810.123 0 668.669 4.88586 574.122 99.6773Z" fill="#0098FF"/>
</g>
<defs>
<clipPath id="clip0_333_114">
<rect width="811" height="100" fill="white"/>
</clipPath>
</defs>
</svg>
