<svg width="811" height="100" viewBox="0 0 811 100" fill="none" xmlns="http://www.w3.org/2000/svg">
<path d="M188.85 36.8904H120.443L118 38.8451V99.6776H136.812V76.7124L138.522 75.0026H188.849C201.553 75.0026 207.416 71.5827 207.416 62.7877V48.8621C207.417 40.3107 201.553 36.8904 188.85 36.8904ZM188.85 59.3665C188.85 63.5194 186.162 64.2523 180.054 64.2523H138.766L136.812 62.5425V49.5944L138.522 47.8843H180.054C185.917 47.8843 188.849 48.6172 188.849 52.7701L188.85 59.3665ZM242.109 48.3726L258.477 72.3146L257.5 74.5136H221.342L212.059 85.9961H265.806L269.715 88.1947L278.022 99.6772H299.765L252.125 36.1575M457.832 87.4617V70.3606L459.786 68.6501H496.188V57.9005H438.531V99.6772H523.551V88.9276H460.031M438.531 36.8904H524.283V48.6172H438.531V36.8904ZM343.008 48.1284H412.146C411.169 39.3335 405.55 36.8904 391.869 36.8904H342.275C326.639 36.8904 321.753 39.8223 321.753 51.7929V85.0186C321.753 96.7457 326.639 99.9218 342.275 99.9218H391.869C405.794 99.9218 411.169 97.2342 411.658 88.1947H343.008L341.053 86.24V49.5944M71.5818 61.3212H21.4989L20.033 59.6114V48.8618L21.4989 47.6403H89.1719L90.1491 45.4415C87.9502 39.5777 81.8426 36.6465 70.8488 36.6465H23.6975C8.06197 36.6465 3.17575 39.5781 3.17575 51.5487V58.6339C3.17575 70.361 8.06197 73.537 23.6975 73.537H73.7807L75.2463 75.0023V86.2403L74.0249 87.9508H1.70982C1.70982 87.9508 0 88.9277 0 89.1722C1.22139 97.4787 6.84058 99.6772 20.2772 99.6772H71.5821C87.2176 99.6772 92.3483 96.7457 92.3483 84.7747V76.2237C92.348 64.4972 87.2176 61.3212 71.5818 61.3212ZM578.275 36.6462H549.936L548.47 39.5777L579.741 62.5429C585.605 59.1223 592.201 55.7023 599.041 52.2817M603.683 79.6443L631.29 99.6772H659.63L660.851 96.9896L619.807 66.94C614.433 71.0929 608.814 75.2465 603.683 79.6443Z" fill="white"/>
<path d="M574.122 99.6773H548.47L546.271 96.2567C563.617 79.3998 641.306 7.57353 810.123 0C810.123 0 668.669 4.88586 574.122 99.6773Z" fill="white"/>
</svg>
