<?xml version="1.0" encoding="UTF-8"?>
<svg id="_Слой_1" data-name="Слой 1" xmlns="http://www.w3.org/2000/svg" width="500" height="84.5" viewBox="0 0 500 84.5">
  <defs>
    <style>
      .cls-1 {
        fill: #0b50ff;
        stroke-width: 0px;
      }
    </style>
  </defs>
  <polygon class="cls-1" points="345.47 61.67 345.48 61.68 345.98 61.14 345.47 61.67"/>
  <polygon class="cls-1" points="122.12 80.71 122.1 80.67 122.07 80.64 121.46 81.04 122.12 80.71"/>
  <polygon class="cls-1" points="260.31 52.42 260.31 52.42 261.01 52.66 260.31 52.42"/>
  <polygon class="cls-1" points="119.12 64.86 119.11 64.87 119.72 65.29 119.12 64.86"/>
  <path class="cls-1" d="M259.51,46.36h-.74v1.95l.69.04.05-.74h0s-.05.74-.05.74c.99.06,1.53.16,1.75.25h.02s.02.02.02.02l.23-.69h0s0-.01,0-.01l-.23.7s.02,0,.02,0c0,0,.02.05.02.18,0,.22-.06.61-.22,1.18-.16.57-.42,1.37-.78,2.43l.7.24h0s0,0,0,0l-.7-.24-6.32,18.8.7.24h0l-.71-.22c-.02.06-.03.09-.05.12-.02-.06-.05-.1-.07-.18h0s-4.96-14.35-4.96-14.35l1.44-4.31h0c.51-1.5.91-2.5,1.2-3.06.3-.53.58-.75.78-.82h.01s.01-.01.01-.01c.3-.13.88-.24,1.85-.28l-.03-.74h0s.03.74.03.74l.71-.03v-1.97h-15.77v1.96l.71.03.03-.74h0l-.03.74c.89.04,1.45.12,1.74.21.23.07.38.19.48.36l.63-.39h0s-.62.39-.62.39h0s0,.03,0,.03c.17.24.4.74.71,1.57h0s2.79,7.91,2.79,7.91l-4.32,12.79h0v.02c-.02.06-.04.09-.05.12-.02-.06-.05-.11-.08-.19h0s-7.36-21.3-7.36-21.3h0c-.2-.61-.27-.94-.27-1.07s.03-.17.03-.17c0,0,0,0,.01-.01,0,0,.03-.02.07-.03.32-.1.98-.19,2.08-.24l.71-.03v-1.97h-10v1.96l.71.03.03-.74v.02l-.03.72c.89.04,1.45.12,1.73.21.23.07.38.19.48.36h0s0,.03,0,.03l.61-.42h0s0,0,0,0l-.61.42c.17.24.41.75.71,1.58h0s7.48,21.3,7.48,21.3h0c.24.7.61,1.29,1.14,1.71.54.42,1.18.62,1.88.62s1.3-.2,1.81-.62c.5-.41.84-1,1.06-1.68h0s0,0,0,0c0,0,0,0,0,0h0s3.37-9.95,3.37-9.95l3.47,9.94.7-.24h-.02s-.68.24-.68.24h0c.25.7.61,1.29,1.14,1.71.53.42,1.18.62,1.88.62s1.27-.2,1.78-.62c.49-.41.84-.99,1.09-1.67h0s6.54-19.33,6.54-19.33h0s-.7-.23-.7-.23h0s.7.23.7.23c.51-1.52.91-2.52,1.19-3.05.31-.54.58-.76.78-.83h.01s.01-.01.01-.01c.3-.13.88-.24,1.85-.28l.71-.03v-1.97h-7.73ZM253.47,72.07h0s0,0,0,0h0ZM248.8,48.57l.35-.62.02-.03s0,0,0,0l-.36.64s.05.04.06.07c.02.04.05.13.05.3,0,.34-.12.96-.42,1.9h0s-.81,2.45-.81,2.45l-1.18-3.4h0c-.2-.61-.27-.95-.27-1.08s.02-.2.03-.22c0,0,0-.01.01-.02,0,0,.01,0,.03-.02.2-.09.6-.17,1.3-.17s1.06.1,1.18.17l.05-.08-.05.08h.02ZM249.19,51.07h-.03s.03,0,.03,0c0,0,0,0,0,0h0ZM246.78,59.62h0s0,0,0,0h0ZM248.12,56.84h0s0,0,0,0h0s0,0,0,0ZM250.9,49.12h0s0,0,0,0h0ZM246.35,58.43h0s0,0,0,0h0s0,0,0,0ZM240.73,72.07h0,0s0,0,0,0ZM263.24,49.12h0s0,0,0,0h0ZM243.48,50.28h0s0,0,0,0h0ZM241.5,71.31l.45.15h0s0,0,0,0l-.44-.15ZM240.43,71.43h0s.02,0,.02,0h-.02ZM230.75,50.28h0s-.02,0-.02,0h.02Z"/>
  <polygon class="cls-1" points="306.69 47.7 306.68 47.7 307.04 48.35 306.69 47.7"/>
  <path class="cls-1" d="M162.6,46.57h0s0,0-.01,0c0,0,0,0,0,0h0c-.67-.48-1.53-.68-2.49-.68-2.63,0-5.24,1.17-7.81,3.38l.48.56h0l-.1-.12-.38-.44h0c-2.43,2.11-4.73,4.72-6.91,7.79h-10.54v.55c-.05-.05-.09-.1-.15-.14h0s0,0,0,0c0,0,0,0,0,0h0c-.78-.62-1.81-.89-2.99-.89-2.18,0-4.43.87-6.75,2.52h0s.43.6.43.6h0l-.43-.6c-2.28,1.63-4.22,3.56-5.82,5.79l.6.43h0s-.6-.43-.6-.43c-1.55,2.19-2.43,4.13-2.43,5.77,0,1.06.39,1.95,1.19,2.59h0s0,0,0,0c.8.62,1.83.89,3.02.89,2.18,0,4.42-.87,6.72-2.52h0s0,0,0,0c0,0,0,0,0,0h0c2.3-1.63,4.24-3.56,5.82-5.79h0s0,0,0,0c0,0,0,0,0,0h0c1.57-2.19,2.46-4.12,2.46-5.77,0-.31-.05-.6-.11-.88h8.07l-9.44,13.46h0s.58.41.58.41l.02.02-.61-.42c-1.52,2.19-2.81,3.92-3.87,5.2l.57.47h0s0,0,0,0l-.57-.47h0c-1.04,1.27-2.21,2.36-3.51,3.25-1.25.86-2.55,1.27-3.92,1.27-.24,0-.36-.05-.42-.09-.05-.03-.11-.09-.16-.23-.02-.07-.06-.2-.09-.44v-.03s-.01-.03-.01-.03l-.72.18h0s.72-.18.72-.18c-.07-.29-.17-.57-.3-.82l-.66.33h0s.61-.41.61-.41c-.31-.46-.81-.6-1.26-.6-.53,0-1.01.2-1.37.61h0s0,0-.01.01c0,0,0,0-.01.01h0c-.33.37-.51.83-.51,1.33,0,.78.44,1.38,1.07,1.82h0s0,0,0,0c0,0,0,0,0,0h0c.67.48,1.53.68,2.49.68,2.92,0,5.67-1.07,8.22-3.16,2.51-2.05,4.88-4.67,7.13-7.87h0s-.51-.36-.51-.36l-.07-.05.58.4,10.72-15.26-.59-.41h.01s.58.41.58.41h0c1.56-2.23,2.88-4.02,3.94-5.37h0c1.06-1.34,2.22-2.49,3.47-3.44h0s-.45-.59-.45-.59h0s.45.59.45.59c1.23-.95,2.39-1.37,3.49-1.37.24,0,.36.05.42.09.05.03.11.09.16.23.02.07.06.2.1.44v.03s.01.03.01.03l.72-.18h0s-.72.18-.72.18c.07.29.17.57.3.82l.66-.33h0s-.66.33-.66.33l.02.04.02.04c.31.46.81.6,1.26.6.53,0,1.01-.2,1.37-.61h0s0,0,.01-.01c0,0,0,0,.01-.01h0c.33-.37.51-.83.51-1.33,0-.78-.44-1.38-1.07-1.82ZM131.86,59.04c.12.14.25.43.25,1,0,1.1-.51,2.64-1.67,4.64-1.14,1.96-2.56,3.67-4.27,5.12h0s.48.56.48.56h0s-.48-.56-.48-.56c-1.67,1.43-3.22,2.08-4.68,2.08-.4,0-.62-.11-.75-.23-.09-.1-.22-.38-.22-1.01,0-1.13.5-2.66,1.64-4.64,1.14-1.96,2.55-3.67,4.24-5.12h0c1.69-1.43,3.25-2.08,4.71-2.08.44,0,.64.12.75.24ZM120.2,72.16h0s0,0,0,0h0ZM121.52,65.63h0s0,0,0,0h0ZM134.22,58.03h0,0ZM118.13,72.91l.21-.26h0s-.21.26-.21.26ZM127.2,71h0s0,0,0,0l.02.03-.02-.03ZM132.85,65.39s0,0,0,0h0s0,0,0,0ZM120.42,83.21s0,0,0,0h0s0,0,0,0ZM151.94,52.38h0s.08.07.08.07l-.08-.07ZM162.59,49.24h0s0,0,0,0Z"/>
  <polygon class="cls-1" points="207.74 48.6 207.76 48.61 207.78 48.61 207.95 47.9 207.74 48.6"/>
  <path class="cls-1" d="M355.15,69.34l-.58-.15-.19.71h0s.19-.71.19-.71l-.68-.18-.21.67c-.53,1.67-1.19,2.11-1.8,2.11-.39,0-.62-.12-.78-.32-.17-.25-.35-.82-.41-1.89v-.02s-.73.06-.73.06h0s.73-.06.73-.06c-.02-.21-.03-.56-.03-1.07v-.05s-.74.05-.74.05h0l.74-.05c-.02-.32-.05-.85-.09-1.59h0c-.02-.77-.06-1.47-.13-2.1h0c-.15-1.61-.66-2.95-1.59-3.96h0s0,0,0,0c0,0,0,0,0,0h0c-.4-.45-.9-.8-1.45-1.08,1.02-.39,1.93-.91,2.69-1.59,1.36-1.22,2.05-2.79,2.05-4.64,0-1.46-.42-2.75-1.29-3.85h0c-.85-1.1-2-1.91-3.43-2.46-1.42-.55-3-.81-4.72-.81h-11.76v1.96l.7.04.04-.74h0s-.04.74-.04.74c1.15.06,1.84.15,2.15.24h.02s.02.01.02.01l.17-.72h0s0,0,0,0l-.17.72c.24.06.31.15.34.23h0c.07.18.15.64.15,1.52v19.41c0,.86-.07,1.34-.16,1.54-.03.07-.11.17-.37.25-.33.08-1.03.16-2.17.22l.04.74h0s-.04-.74-.04-.74l-.7.04v1.96h10.49v-1.96l-.7-.04-.04.74v-.02l.04-.72c-1.12-.06-1.83-.14-2.19-.22-.22-.07-.3-.16-.34-.24-.08-.2-.16-.68-.16-1.55v-9.21h3.96c1.66,0,2.77.41,3.48,1.1l.52-.53h0s0,0,0,0l-.5.54c.73.68,1.21,1.79,1.32,3.45v.02c.04.41.06,1.05.06,1.92v1.28c0,.67,0,1.17.03,1.49h0c.09,1.39.51,2.54,1.39,3.29l.47-.56-.47.56h.02s.46-.56.46-.56h0s-.46.58-.46.58c.83.66,1.82.98,2.93.98s1.99-.32,2.77-.97h0c.8-.68,1.34-1.68,1.67-2.91l.19-.72-.72-.19ZM341.91,58.45h0l-3.9.03v-10.03h3.81c2.14,0,3.66.49,4.68,1.35l.07-.08-.07.08h0s.44-.54.44-.54l.02-.03h0s-.47.57-.47.57c1.02.83,1.56,2.02,1.56,3.67s-.54,2.81-1.56,3.64h0c-1.03.84-2.53,1.31-4.61,1.33ZM346.99,57.69s0,0,0,0l-.02-.02.02.02ZM334.84,71.61h-.02s.02,0,.02,0c0,0,0,0,0,0ZM333.98,72.28h0s0,0,0,0h0ZM348.3,61.3h0s0,0,0,0h0ZM350.26,50.09h0s0,0,0,0ZM347.63,69.78h0s-.02,0-.02,0h.02Z"/>
  <path class="cls-1" d="M300.82,47.62h0s.04.74.04.74l.7-.04v-1.96h-8.13v1.96l.71.03.03-.74v.02l-.03.72c.89.04,1.44.11,1.72.19-.03.14-.12.39-.35.79h0s.65.36.65.36c0,0,0,0,0,0l-.65-.35c-.26.49-.72,1.2-1.39,2.15h0s-5.39,7.86-5.39,7.86l-6.69-9.45h0s-.51.36-.51.36l-.09.06.6-.43c-.4-.55-.65-.93-.77-1.14-.04-.08-.06-.13-.08-.19,0,0,0,0,.02,0,.31-.09.92-.17,1.89-.21l.71-.03v-1.97h-10.03v1.94l.68.05.06-.74h0l-.06.74c.76.06,1.34.2,1.76.39l.29-.62-.29.62h.02c.35.16.77.51,1.24,1.19h0s.56-.39.56-.39l.05-.03h0l-.6.43,8.6,12.11v7.73c0,.86-.07,1.34-.16,1.54-.03.07-.11.17-.37.25-.33.08-1.03.16-2.17.22l-.7.04v1.96h10.49v-1.96l-.7-.04-.04.74v-.02l.04-.72c-1.12-.06-1.83-.14-2.19-.22-.22-.07-.3-.16-.34-.24-.08-.2-.16-.68-.16-1.55v-8.13l6.77-9.82h0c.88-1.26,1.5-2.1,1.87-2.53.36-.42.66-.62.89-.71.28-.1.78-.19,1.55-.23l-.04-.74ZM280.61,49.12h0s0,0,0,0h0ZM286.59,71.61h0s0,0,0,0h0ZM285.74,72.28h0s0,0,0,0h0Z"/>
  <path class="cls-1" d="M225.7,64.62h-.6l-.13.58c-.51,2.35-1.05,3.88-1.6,4.69-.5.74-1.28,1.24-2.43,1.46-1.23.23-3.45.35-6.73.35h-.4c-.75,0-1.2-.07-1.44-.15-.15-.08-.23-.17-.26-.29-.07-.24-.12-.71-.12-1.47v-9.49h9.41v-2.09h-9.41v-9.76h6.04c1.31,0,2.23.2,2.83.52l.35-.65s0,0,0,0h0s-.35.65-.35.65h0c.61.33,1.11.85,1.48,1.62.39.82.77,2.05,1.14,3.74l.53-.11h0s-.53.11-.53.11l.13.58h1.99l-.11-.84-.73.1h0s.73-.1.73-.1l-.95-7.08-.73.1h0s.73-.1.73-.1l-.09-.64h-19.56v1.96l.7.04.04-.74v.02l-.04.72c1.15.06,1.84.15,2.15.24l.21-.71h0s0,0,0,0l-.17.72c.24.06.31.15.34.23l.68-.28s0,0,0,0h0s-.68.28-.68.28h0c.07.18.15.64.15,1.52v19.41c0,.87-.08,1.35-.16,1.55-.04.07-.11.17-.37.24-.33.08-1.03.16-2.16.22l.04.72v.02l-.04-.74-.7.04v1.96h20.96l.09-.64,1.04-7.69.11-.84h-1.4Z"/>
  <path class="cls-1" d="M194.91,46.36h-.74v1.96l.7.04c1.15.06,1.84.15,2.15.24h.02s.02.01.02.01c.24.06.31.15.34.23h0c.07.18.15.64.15,1.52v16.86l-16.64-20.59-.57.46h0s.58-.46.58-.46l-.22-.27h-6.16v1.96l.7.04c1.15.06,1.84.15,2.15.24h.02s.02.01.02.01c.24.06.31.15.34.23h0c.07.18.15.64.15,1.52v19.41c0,.86-.07,1.34-.15,1.54-.03.07-.11.17-.37.25-.33.08-1.03.16-2.17.22l-.7.04v1.96h8.96v-1.96l-.7-.04-.04.74v-.02l.04-.72c-1.12-.06-1.83-.14-2.19-.22-.22-.07-.3-.16-.34-.24-.08-.2-.16-.68-.16-1.55v-18.09l17.62,21.82.58-.46h0l-.58.46.22.27h1.79v-23.42c0-.88.08-1.34.15-1.5h0s-.68-.3-.68-.3h0s0,0,0,0l.68.28c.04-.1.11-.18.32-.24h0s.02,0,.02,0l-.2-.68v-.03h0l.2.71c.34-.1,1.04-.19,2.19-.25l-.04-.72v-.02l.04.74.7-.04v-1.96h-8.22ZM178.45,71.61h0s0,0,0,0h0ZM177.59,72.28v-.03s0,.03,0,.03c0,0,0,0,0,0ZM180.4,72.28h0s0,0,0,0h0Z"/>
  <polygon class="cls-1" points="253.99 71.22 253.98 71.24 254.69 71.46 253.99 71.22"/>
  <polygon class="cls-1" points="306.68 72.32 306.69 72.32 307.04 71.67 306.68 72.32"/>
  <path class="cls-1" d="M327,52.77h0c-1.29-2.15-3.08-3.84-5.35-5.06h0c-2.25-1.22-4.75-1.83-7.47-1.83s-5.22.61-7.5,1.83l.35.65h0s0,0,0,0l-.35-.65c-2.25,1.22-4.04,2.91-5.35,5.06h0c-1.3,2.16-1.94,4.59-1.94,7.25s.64,5.09,1.94,7.25h0s.62-.37.62-.37h.01s-.63.38-.63.38c1.31,2.15,3.1,3.84,5.35,5.06l.35-.65s0,0,0,0h0l-.35.65c2.27,1.22,4.78,1.83,7.5,1.83s5.21-.61,7.47-1.83h0c2.27-1.22,4.06-2.91,5.35-5.06h0c1.31-2.16,1.97-4.58,1.97-7.25s-.65-5.09-1.97-7.25ZM304.07,66.55h0l.07-.03-.07.03s0,0,0,0ZM304.74,66.23h0c-.86-1.84-1.3-3.91-1.3-6.22s.44-4.36,1.3-6.19h0c.86-1.84,2.09-3.26,3.7-4.31,1.59-1.03,3.5-1.56,5.74-1.56s4.14.53,5.74,1.56c1.61,1.04,2.84,2.47,3.7,4.3h0s.67-.31.67-.31h0l-.67.32c.86,1.82,1.3,3.88,1.3,6.19s-.44,4.37-1.3,6.22h0c-.86,1.81-2.09,3.23-3.7,4.27-1.59,1.03-3.5,1.56-5.74,1.56s-4.14-.53-5.74-1.56c-1.61-1.04-2.84-2.46-3.7-4.27Z"/>
  <path class="cls-1" d="M383.68,73.05h0s.5-.54.5-.54l-11.3-10.5-.5.54h0l.06-.06.45-.48h0c-1.15-1.06-2.22-1.88-3.23-2.42h0s0,0,0,0c0,0,0,0,0,0h0c-.59-.33-1.21-.58-1.84-.78l6.58-6.98h0c1.05-1.11,1.83-1.89,2.36-2.36.53-.46.97-.72,1.32-.84.38-.13.91-.23,1.63-.27l.7-.04v-1.96h-9.11v1.96l.7.03.03-.74h0s-.03.74-.03.74c.89.04,1.45.13,1.75.23h.02s.02.01.02.01l.21-.69v-.02s-.21.71-.21.71c.05.01.07.02.08.03,0,.09-.05.31-.3.68l.61.41s0,0,0,0h0s-.61-.41-.61-.41h0c-.22.35-.75.98-1.63,1.92h0s-6.71,7.09-6.71,7.09h-2.36v-7.96c0-.88.08-1.34.15-1.5h0c.04-.12.11-.2.32-.25h0s.02,0,.02,0l-.19-.68h0s.19.68.19.68c.34-.1,1.04-.19,2.19-.25l.7-.04v-1.96h-10.49v1.96l.7.04c1.15.06,1.84.15,2.15.24l.21-.69h0s-.21.69-.21.69h.02s.02.01.02.01c.24.06.31.15.34.23h0c.07.18.15.64.15,1.52v19.41c0,.86-.07,1.34-.15,1.54-.03.07-.11.17-.37.25-.33.08-1.03.16-2.17.22l-.7.04v1.96h10.49v-1.96l-.7-.04c-1.12-.06-1.84-.14-2.2-.22-.22-.07-.3-.16-.34-.25-.08-.2-.15-.68-.15-1.54v-9.33h1.55c.53,0,.93.07,1.22.19l.28-.69h0s-.27.69-.27.69h.01c.34.13.71.35,1.11.68.43.35,1.1.96,2.04,1.83h0s11.12,10.44,11.12,10.44l.21.2h5.47l-1.38-1.28-.5.54ZM365.51,59.07h0s0,0,0,0h0ZM359.65,71.61h0s0,0,0,0h0ZM358.79,72.28h0s0,0,0,0h0ZM363.13,72.28v-.02s0,.02,0,.02c0,0,0,0,0,0ZM362.3,71.61h0s0,0,0,0h0ZM369.3,60.23h0s0,0,0,0ZM369.27,62.61h0s-.23.25-.23.25l.23-.25Z"/>
  <polygon class="cls-1" points="239.43 2.97 239.43 2.99 240.11 2.69 239.43 2.97"/>
  <path class="cls-1" d="M256.51,27.91h.65l.09-.64,1.04-7.69.11-.84h-1.99l-.13.58c-.51,2.35-1.05,3.88-1.6,4.69-.5.74-1.28,1.24-2.42,1.46-1.23.23-3.46.35-6.74.35h-.4c-.75,0-1.2-.07-1.44-.15-.15-.08-.23-.17-.26-.29-.07-.24-.12-.71-.12-1.47v-9.49h9.41v-2.09h-9.41V2.58h6.04c1.31,0,2.23.2,2.83.52l.35-.65s0,0,0,0h0l-.34.65c.61.32,1.11.85,1.48,1.62.39.82.77,2.05,1.14,3.74l.53-.11h0s-.53.11-.53.11l.13.58h1.99l-.11-.84-.95-7.08-.09-.64h-19.56v1.96l.7.04.04-.74v.02l-.04.72c1.15.06,1.84.15,2.15.24h.02s.02.01.02.01l.17-.7h0s0-.01,0-.01l-.17.72c.24.06.31.15.34.23l.68-.28h0s-.68.3-.68.3c.07.17.15.62.15,1.51v19.41c0,.87-.08,1.35-.16,1.55-.03.07-.11.17-.37.24-.33.08-1.03.16-2.16.22l.04.72v.02l-.04-.74-.7.04v1.96h20.31Z"/>
  <path class="cls-1" d="M499.26.49h-7.4v1.96l.71.03.03-.74v.02l-.03.72c.89.04,1.44.11,1.72.19-.03.14-.12.39-.35.79h0s.65.36.65.36h0s-.65-.35-.65-.35c-.26.49-.72,1.2-1.39,2.15l.58.41h0l-.58-.41h0s.59.41.59.41h0l-.59-.4-5.39,7.86-6.69-9.45h0s-.51.36-.51.36l-.09.06h0l.6-.43c-.4-.55-.65-.93-.77-1.14-.04-.08-.06-.13-.08-.19,0,0,.01,0,.02,0,.31-.09.92-.17,1.89-.21l-.03-.72v-.02l.03.74.71-.03V.49h-18.61v1.96l.7.04.04-.74v.02l-.04.72c1.15.06,1.84.15,2.15.24l.21-.71h0s0,0,0,0l-.17.72c.24.06.31.15.34.23l.68-.28h0s-.68.3-.68.3c.07.17.15.62.15,1.51v16.87L450.36.76l-.58.46h0s.58-.46.58-.46l-.22-.27h-6.16v1.96l.7.04c1.15.06,1.84.15,2.15.24l.21-.71h0s0,0,0,0l-.17.72c.24.06.31.15.34.23l.68-.28h-.01s-.67.28-.67.28h0c.07.18.15.64.15,1.52v19.41c0,.86-.07,1.34-.16,1.54-.03.07-.11.17-.37.25-.33.08-1.03.16-2.17.22l-.64.03h0s-.71-.03-.71-.03l-.03.74v-.02l.03-.72c-.88-.04-1.44-.12-1.73-.21-.22-.07-.36-.19-.47-.34-.17-.27-.42-.8-.76-1.64h0s-8.3-21.42-8.3-21.42h0c-.27-.69-.64-1.27-1.15-1.68-.52-.42-1.15-.62-1.83-.62-.78,0-1.5.22-1.99.8h0s0,0,0,0c0,0,0,0,0,0h0c-.36.41-.65.89-.86,1.42l.69.27h0s0,0,0,0l-.69-.27h0s-7.39,19.48-7.39,19.48h0c-.59,1.54-1.03,2.57-1.33,3.11-.28.49-.55.72-.76.82-.27.12-.83.23-1.78.27l-.71.03v1.97h8.47v-1.97l-.71-.03c-.97-.04-1.55-.13-1.82-.22-.03-.02-.05-.03-.05-.04-.01-.02-.04-.09-.04-.25,0-.22.06-.59.22-1.14.18-.55.46-1.34.86-2.38h0s-.66-.25-.66-.25h-.03s.69.25.69.25l1.22-3.25h12.05l2.2,5.78.69-.26h0s-.03.01-.03.01l-.67.25h0c.21.55.28.9.28,1.08,0,.04,0,.07,0,.08,0,0,0,.01,0,.02,0,0-.04.05-.17.1h-.01s.26.69.26.69h0s0,0,0,0l-.26-.69c-.29.11-.93.21-2.01.23h-.72v2h18.9v-1.96l-.7-.04c-1.13-.06-1.84-.14-2.2-.22-.22-.07-.3-.16-.34-.25-.08-.2-.16-.68-.16-1.54V5.82l17.62,21.82.22.27h1.79V4.49c0-.88.08-1.34.15-1.5h0c.04-.12.11-.2.32-.25h0s.02,0,.02,0l-.2-.71h0s.2.71.2.71c.34-.1,1.04-.19,2.19-.25l.6-.03.41.03.05-.74h0s-.05.74-.05.74c.76.06,1.34.2,1.76.39l.14-.3-.14.3h.02c.35.16.77.51,1.24,1.19l.61-.42-.05.03-.56.39h0s8.6,12.12,8.6,12.12v7.73c0,.87-.08,1.35-.16,1.55-.04.07-.11.17-.37.24-.33.08-1.03.16-2.16.22l.04.72v.02l-.04-.74-.7.04v1.96h10.49v-1.96l-.7-.04-.04.74h0s.04-.74.04-.74c-1.12-.06-1.83-.14-2.2-.22-.23-.07-.3-.16-.34-.25-.08-.2-.16-.68-.16-1.54v-8.13l6.77-9.82h0c.88-1.26,1.5-2.1,1.87-2.53.36-.42.66-.62.89-.71.28-.1.78-.19,1.55-.23l.7-.04V.49h-.74ZM484.17,26.41h0s0,0,0,0h0ZM487.69,25.74s0,0,0,0h0s0,0,0,0ZM447.89,25.74h0s0,0,0,0c0,0,0,0,0,0ZM449.85,26.41h0s0,0,0,0h0ZM449.02,25.74s0,0,0,0h.02s-.02,0-.02,0ZM441.38,26.41h0s0,0,0,0h0ZM440.52,25.77h0s0,0,0,0ZM428.39,2.92s.02-.05.03-.08c.02.04.03.07.06.12l5.17,13.52h-10.41l5.15-13.56h0ZM418.17,25.19h0s0,0,0,0h0ZM419.63,24.06h0s0,0,0,0h0ZM431.39,2.57h0s0,0,0,0h0ZM427.66,1.29h0s0,0,0,0h0ZM468.75,2.73l-.08-.03h0s.08.03.08.03Z"/>
  <polygon class="cls-1" points="252.16 3.1 252.17 3.1 252.51 2.45 252.16 3.1"/>
  <path class="cls-1" d="M302.5,21.04h0s-.03.02-.03.02l-.62.34h0c1.21,2.16,2.88,3.85,5.01,5.08h0c2.14,1.21,4.57,1.81,7.26,1.81,2.88,0,5.33-.66,7.29-2.02h0c1.97-1.38,3.43-3.34,4.39-5.84l.29-.74-.76-.23-.21.71h0l.21-.71-.61-.18-.2.66h0l.2-.66-.65-.2-.25.63.59.23h0s-.59-.23-.59-.23c-.81,2.07-1.96,3.6-3.43,4.64-1.45,1.01-3.36,1.54-5.77,1.54-2.22,0-4.09-.54-5.66-1.58-1.57-1.06-2.77-2.47-3.59-4.25h0c-.83-1.81-1.25-3.78-1.25-5.92,0-2.36.38-4.45,1.14-6.28h0c.76-1.81,1.88-3.21,3.34-4.22h0s-.42-.6-.42-.6h0s0,0,0,0l.43.6c1.45-1.02,3.2-1.54,5.31-1.54,1.75,0,3.34.35,4.78,1.03h0s.28-.61.28-.61l.03-.06h0l-.31.67c1.45.67,2.62,1.57,3.52,2.69l.58-.46h0s-.58.46-.58.46h0c.92,1.12,1.49,2.32,1.74,3.61l.63-.12h0s-.63.12-.63.12l.11.6h1.89l-.02-.76-.21-7.57-.02-.72h-1.93l-.07.66c-.06.49-.16.76-.24.88-.04.05-.06.07-.07.07,0,0-.02,0-.06,0-.13,0-.25-.02-.37-.07-.18-.07-.44-.19-.8-.37h0c-1.17-.61-2.4-1.11-3.67-1.51h0s0,0,0,0c0,0,0,0,0,0h0c-1.33-.43-2.84-.64-4.53-.64-2.6,0-4.98.61-7.11,1.84h0c-2.11,1.21-3.78,2.89-4.98,5.04-1.21,2.16-1.8,4.58-1.8,7.26s.58,5.08,1.77,7.25l.65-.35ZM304.7,20.37s0,0,0,0l.11-.05-.11.05ZM304.58,7.58h0s0,0,0,0ZM318.29,1.35h0s0,0,0,0l.02-.06-.02.06Z"/>
  <path class="cls-1" d="M204.38,25.74h0l.7.24,6.54-19.32-.7-.24h0l.7.23c.51-1.52.91-2.52,1.19-3.05.3-.54.58-.76.78-.83l-.26-.69s0,0,0,0h0s.26.69.26.69h.02s.01-.01.01-.01c.3-.13.88-.24,1.85-.28l.71-.03V.49h-8.47v1.95l.69.04c.99.06,1.53.16,1.75.25l.28-.68h0s-.28.68-.28.68h.02s.02.02.02.02c.02,0,.02,0,.02,0,0,0,.02.05.02.18,0,.22-.06.61-.22,1.18-.15.57-.41,1.37-.78,2.43h0s.67.23.67.23h.03s-.7-.22-.7-.22l-6.32,18.8v.02s.69.21.69.21h.01s-.71-.21-.71-.21c-.02.06-.03.08-.05.12-.02-.06-.05-.11-.08-.19h0s-4.95-14.34-4.95-14.34l1.45-4.31h0c.51-1.5.91-2.5,1.2-3.06.3-.53.58-.75.78-.82l-.26-.69h0s.26.69.26.69h.01s.01-.01.01-.01c.3-.13.88-.24,1.85-.28l.71-.03V.49h-15.77v1.96l.71.03c.89.04,1.45.12,1.74.21.23.07.38.19.48.36l.63-.39h-.01s-.61.39-.61.39h0s0,.03,0,.03c.17.24.4.74.71,1.57h0s2.79,7.91,2.79,7.91l-4.32,12.79v.02c-.02.06-.04.09-.06.13-.02-.06-.05-.1-.07-.18h0s-7.36-21.31-7.36-21.31h0c-.2-.61-.27-.94-.27-1.07s.03-.17.03-.17c0,0,0,0,.01-.01,0,0,.03-.02.07-.03.32-.1.98-.19,2.08-.24l.71-.03V.49h-10v1.96l.71.03.03-.74v.02l-.03.72c.89.04,1.45.12,1.73.21.23.07.38.19.48.36l.62-.38h0s-.62.38-.62.38h0s0,.03,0,.03c.17.24.41.75.71,1.58h0s7.48,21.3,7.48,21.3h0c.25.7.62,1.29,1.14,1.71.54.42,1.18.62,1.88.62s1.3-.2,1.81-.62c.5-.41.84-1,1.06-1.68h0s3.37-9.96,3.37-9.96l3.48,9.94h0s.63-.22.63-.22l.07-.02h0l-.7.24c.25.7.61,1.29,1.14,1.71.53.42,1.18.62,1.88.62.67,0,1.27-.2,1.78-.62.49-.41.84-.99,1.09-1.67l-.7-.25ZM194.74,4.25s0,0,0,0h0s0,0,0,0ZM198.09,2.05s0,0,0,0l-.36.64s.05.04.06.07c.02.04.05.13.05.3,0,.34-.12.96-.42,1.9h0s-.81,2.45-.81,2.45l-1.18-3.4h0c-.2-.61-.27-.95-.27-1.08s.02-.2.03-.22c0,0,0-.01.01-.02,0,0,.01-.01.03-.02.2-.09.6-.17,1.29-.17s1.06.1,1.18.17l.38-.63h0ZM197.06,10.96h0s0,0,0,0h0s0,0,0,0ZM195.29,12.55h0s0,0,0,0h0s0,0,0,0ZM182.31,2.02h0s0,0,0,0h0ZM212.17,3.24h0s.04.02.04.02l-.04-.02h0ZM202.1,25.55h0s0,0,0,0ZM198.58,6.42h0s.15.05.15.05l-.15-.05ZM199.84,3.24h0s0,0,0,0c0,0,0,0,0,0ZM182,4.25h0s0,0,0,0ZM179.68,4.4h0s-.02,0-.02,0h.02ZM187.16,25.71h0Z"/>
  <polygon class="cls-1" points="205.08 25.99 205.08 25.97 204.38 25.74 205.08 25.99"/>
  <polygon class="cls-1" points="274.39 15.8 274.4 15.81 274.91 15.27 274.39 15.8"/>
  <path class="cls-1" d="M24.85,1.13l-.73.1h0s.73-.1.73-.1l-.09-.64H1.14l-.09.64.73.1h0s-.73-.1-.73-.1L.11,8.21l-.11.84h1.99l.13-.58-.53-.11h0s.53.11.53.11c.36-1.69.74-2.93,1.14-3.74.37-.78.86-1.3,1.45-1.62.62-.33,1.56-.52,2.86-.52h3.54v21.33c0,.87-.08,1.34-.16,1.54-.03.07-.11.17-.37.25-.33.08-1.03.16-2.17.22l-.7.04v1.96h10.49v-1.96l-.7-.04c-1.12-.06-1.83-.14-2.2-.22-.22-.07-.3-.16-.34-.25-.08-.2-.16-.68-.16-1.54V2.58h3.54c1.31,0,2.22.2,2.82.52l.31-.57-.31.57h0s.34-.65.34-.65h0s-.34.65-.34.65c.61.32,1.11.85,1.48,1.62.39.82.77,2.05,1.14,3.74l.53-.11h0s-.53.11-.53.11l.13.58h1.99l-.11-.84-.95-7.08ZM11.62,25.74h0s0,0,0,0h0ZM15.11,26.41h0,0s0,0,0,0h0ZM14.28,25.74s0,0,0,0h0s0,0,0,0Z"/>
  <path class="cls-1" d="M47.59.49h-.74v1.96l.7.04c1.15.06,1.84.15,2.15.24l.21-.71s0,0,0,0h0s-.21.71-.21.71h.02s.02.01.02.01c.24.06.31.15.34.23h0s0,.01,0,.01l.67-.29h0s-.67.29-.67.29c.07.17.15.62.15,1.51v8.42h-16.23V4.49c0-.88.08-1.34.15-1.51h0s0-.01,0-.01c.04-.1.11-.18.32-.24h0s.02,0,.02,0c.34-.1,1.04-.19,2.19-.25l.7-.04V.49h-10.49v1.96l.7.04c1.15.06,1.84.15,2.15.24l.21-.71h0,0s-.21.71-.21.71h.02s.02.01.02.01c.24.06.31.15.34.23h0s0,.01,0,.01l.67-.29h0s-.67.29-.67.29c.07.17.15.62.15,1.51v19.41c0,.87-.08,1.34-.16,1.54-.03.07-.11.17-.37.25-.33.08-1.03.16-2.17.22l-.7.04v1.96h10.49v-1.96l-.7-.04c-1.12-.06-1.83-.14-2.2-.22-.22-.07-.3-.16-.34-.25-.08-.2-.16-.68-.16-1.54v-8.91h16.23v8.91c0,.87-.08,1.34-.16,1.54-.03.07-.11.17-.37.25-.33.08-1.03.16-2.17.22l-.7.04v1.96h10.49v-1.96l-.7-.04c-1.12-.06-1.83-.14-2.2-.22-.22-.07-.3-.16-.34-.25-.08-.2-.16-.68-.16-1.54V4.49c0-.88.08-1.34.15-1.51h0s0-.01,0-.01c.04-.1.11-.18.32-.24h0s.02,0,.02,0l-.2-.71h0s.2.71.2.71c.34-.1,1.04-.19,2.19-.25l.7-.04V.49h-9.75ZM30.82,25.74h0s0,0,0,0c0,0,0,0,0,0ZM29.97,26.41h0s0,0,0,0h0ZM34.3,26.41h0,0s0,0,0,0ZM33.48,25.74h0s0,0,0,0h0ZM50.76,25.74h0s0,0,0,0c0,0,0,0,0,0ZM54.25,26.41h0s0,0,0,0h0ZM53.42,25.74h0s0,0,0,0h0ZM33.67,2.78l-.19-.08h0s.19.08.19.08ZM34.39,2.35l-.08-.33h0s.08.33.08.33ZM53.52,2.73l-.09-.04h0s.09.04.09.04Z"/>
  <path class="cls-1" d="M174.75,21.39c1.32-2.16,1.97-4.58,1.97-7.25s-.65-5.09-1.97-7.25h0c-1.29-2.15-3.08-3.84-5.35-5.06h0c-2.25-1.22-4.75-1.83-7.46-1.83s-5.22.61-7.5,1.83l.26.48h0s-.26-.48-.26-.48h0c-2.25,1.22-4.04,2.91-5.35,5.06h0s.63.38.63.38h0s0,0,0,0l-.63-.38c-1.3,2.16-1.94,4.58-1.94,7.25s.64,5.09,1.94,7.25h0s.62-.37.62-.37h0s-.63.38-.63.38c1.31,2.15,3.1,3.84,5.35,5.06h0s.26-.47.26-.47h0s-.26.47-.26.47c2.27,1.22,4.78,1.83,7.5,1.83s5.21-.61,7.46-1.83h0c2.27-1.22,4.06-2.91,5.35-5.06h0ZM156.19,24.63c-1.61-1.04-2.84-2.46-3.7-4.27h0c-.87-1.85-1.3-3.91-1.3-6.22s.44-4.36,1.3-6.19l-.67-.32s0,0,0,0h0s.66.32.66.32h0c.86-1.84,2.09-3.26,3.7-4.31,1.59-1.03,3.5-1.56,5.74-1.56s4.14.53,5.74,1.56c1.61,1.04,2.84,2.47,3.7,4.3h0s.65-.3.65-.3h.02s0-.01,0,0l-.67.32c.86,1.82,1.3,3.88,1.3,6.19s-.44,4.37-1.31,6.22h0c-.86,1.81-2.09,3.23-3.7,4.27-1.59,1.03-3.5,1.56-5.74,1.56s-4.14-.53-5.74-1.56ZM174.11,7.27h0s0,0,0,0l.05-.03-.05.03ZM169.05,2.48s0,0,0,0l.1-.18-.09.18ZM169.04,25.8s0,0,0,0l.1.18-.1-.18ZM174.11,21.01h0s.06.03.06.03l-.06-.03Z"/>
  <path class="cls-1" d="M335.43,26.45l.35-.65s0,0,0,0h0s-.35.65-.35.65h0c2.27,1.22,4.78,1.83,7.5,1.83s5.21-.61,7.47-1.83h0c2.27-1.22,4.05-2.91,5.35-5.06h0c1.32-2.16,1.97-4.58,1.97-7.25s-.65-5.09-1.97-7.25h0c-1.29-2.15-3.08-3.84-5.35-5.06h0c-2.25-1.22-4.75-1.83-7.47-1.83s-5.22.61-7.5,1.83h0s.35.65.35.65h0s0,0,0,0l-.35-.65c-2.25,1.22-4.04,2.91-5.35,5.06h0s.63.38.63.38h0s0,0,0,0l-.63-.38c-1.29,2.16-1.94,4.58-1.94,7.25s.64,5.09,1.94,7.25l.63-.38h0s0,0,0,0l-.63.38c1.31,2.15,3.1,3.84,5.35,5.06ZM333.49,7.95h0c.86-1.84,2.09-3.26,3.7-4.31,1.59-1.03,3.5-1.56,5.74-1.56s4.14.53,5.74,1.56c1.61,1.04,2.84,2.47,3.7,4.3h0c.86,1.83,1.3,3.88,1.3,6.19s-.44,4.37-1.3,6.22h0c-.86,1.81-2.09,3.23-3.7,4.27-1.59,1.03-3.5,1.56-5.74,1.56s-4.14-.53-5.74-1.56c-1.61-1.04-2.84-2.46-3.7-4.27h0c-.87-1.85-1.3-3.91-1.3-6.22s.44-4.36,1.3-6.19l-.66-.31h.02s.64.31.64.31ZM352.93,20.62l.11.05s0,0,0,0l-.11-.05ZM332.84,20.66h-.02s0,0,0,0h.02Z"/>
  <path class="cls-1" d="M132.11,27.91h.74v-1.96l-.7-.04c-1.12-.06-1.83-.14-2.2-.22-.22-.07-.3-.16-.34-.25-.08-.2-.16-.68-.16-1.54v-9.21h3.96c1.66,0,2.77.41,3.48,1.1h0s.01.01.01.01l.5-.54-.45.46.45-.46h0s-.5.54-.5.54c.73.68,1.21,1.79,1.32,3.45h0v.02s.74-.07.74-.07h0l-.74.07c.04.41.06,1.05.06,1.92v1.28c0,.67,0,1.17.03,1.48h0s0,0,0,0c0,0,0,0,0,0h0c.09,1.39.51,2.54,1.39,3.29l.48-.56h0s-.48.56-.48.56h.02c.83.68,1.82,1,2.93,1s1.99-.32,2.77-.97l-.42-.51h0s.42.51.42.51h0c.8-.68,1.34-1.68,1.67-2.91l.19-.72-.72-.19-.58-.15-.68-.18-.21.67c-.52,1.67-1.19,2.11-1.8,2.11-.39,0-.62-.12-.78-.32-.17-.25-.35-.82-.4-1.88h0v-.02c-.02-.21-.03-.56-.03-1.07v-.05c-.02-.32-.05-.86-.09-1.61h0c-.02-.76-.06-1.45-.12-2.07h0s0,0,0,0c0,0,0,0,0,0h0c-.15-1.61-.66-2.95-1.59-3.96h0s0,0,0,0c0,0,0,0,0,0h0c-.4-.45-.9-.8-1.45-1.08,1.02-.39,1.93-.91,2.69-1.59,1.36-1.22,2.05-2.79,2.05-4.64,0-1.45-.42-2.74-1.28-3.84h0s0,0,0,0c0,0,0,0,0,0h0c-.85-1.1-2-1.91-3.43-2.46-1.42-.55-3-.81-4.72-.81h-11.76v1.96l.7.04c1.15.06,1.84.15,2.15.24l.21-.71h0,0s-.21.71-.21.71h.02s.02.01.02.01c.24.06.31.15.34.23h0s0,.01,0,.01l.67-.29h0s-.67.29-.67.29c.07.17.15.62.15,1.51v19.41c0,.87-.08,1.34-.16,1.54-.03.07-.11.17-.37.25-.33.08-1.03.16-2.17.22l-.7.04v1.96h9.75ZM129.76,26.41h0s0,0,0,0h0ZM128.93,25.74h0s0,0,0,0h0ZM138.43,3.36h0s0,0,0,0l-.48.56h.01c1.02.84,1.56,2.03,1.56,3.68s-.54,2.8-1.56,3.64c-1.03.84-2.53,1.31-4.61,1.33h0l-3.9.03V2.58h3.81c2.14,0,3.66.49,4.68,1.35l.48-.56ZM126.28,25.74h0s0,0,0,0h0ZM125.42,26.41h0s0,0,0,0h0ZM139.07,23.91h0s-.01,0-.01,0h.01ZM141.95,23.72l-.55.03h0s.55-.03.55-.03ZM141.27,21.01h0s0,0,0,0h0ZM139.75,15.42h0s0,0,0,0h0s0,0,0,0ZM141.7,4.22h0s0,0,0,0h0s0,0,0,0Z"/>
  <path class="cls-1" d="M388.38.49h-.47l-.2.42.67.32h0s-.67-.32-.67-.32l-10.38,21.73-11.23-21.75-.21-.4h-6.23v1.96l.7.04c1.15.06,1.84.15,2.15.24l.21-.69h0s-.21.69-.21.69h.02s.02.01.02.01c.24.06.31.15.34.23h0s.66-.27.66-.27h0s-.66.29-.66.29c.07.17.15.62.15,1.51v19.41c0,.86-.07,1.34-.16,1.54-.03.07-.11.17-.37.25-.33.08-1.03.16-2.17.22l-.7.04v1.96h8.96v-1.96l-.7-.04-.04.74v-.02l.04-.72c-1.12-.06-1.83-.14-2.19-.22-.22-.07-.3-.16-.34-.24-.08-.2-.16-.68-.16-1.55V7.45l10.42,20.06.21.4h1.37l.2-.42,10.2-21.36v17.77c0,.86-.07,1.34-.16,1.54-.03.07-.11.17-.37.25-.33.08-1.03.16-2.17.22l-.7.04v1.96h10.49v-1.96l-.7-.04-.04.74v-.02l.04-.72c-1.12-.06-1.84-.14-2.2-.22-.22-.07-.3-.16-.34-.25-.08-.2-.15-.68-.15-1.54V4.49c0-.88.08-1.34.15-1.5h0c.04-.12.11-.2.32-.25h0s.02,0,.02,0l-.2-.68v-.02s.2.71.2.71c.34-.1,1.04-.19,2.19-.25l-.04-.72v-.02l.04.74.7-.04V.49h-6.36ZM363.58,25.74h-.02s.02,0,.02,0c0,0,0,0,0,0ZM388.17,25.74h-.02s.02,0,.02,0c0,0,0,0,0,0ZM391.65,26.41h0v-.02s0,.02,0,.02c0,0,0,0,0,0ZM390.82,25.74h0s0,0,0,0h0ZM390.92,2.73l-.09-.04h0s.09.04.09.04Z"/>
  <path class="cls-1" d="M114.54,27.04c1.62-.58,2.94-1.44,3.92-2.6h0c1.01-1.2,1.52-2.61,1.52-4.2,0-1.94-.69-3.58-2.06-4.87h0s0,0,0,0c0,0,0,0,0,0h0c-.82-.78-1.83-1.36-2.97-1.8.94-.41,1.78-.93,2.48-1.58h0c1.26-1.2,1.91-2.67,1.91-4.39,0-1.47-.45-2.76-1.36-3.86-.89-1.07-2.08-1.87-3.53-2.41h0s0,0,0,0c0,0,0,0,0,0h0c-1.44-.56-3.02-.84-4.75-.84h-11.76v1.96l.7.04.04-.74h0s-.04.74-.04.74c1.15.06,1.84.15,2.15.24l.21-.71h0s-.21.71-.21.71h.02s.02.01.02.01c.24.06.31.15.34.23h0s0,.01,0,.01l.67-.29h0s-.68.29-.68.29c.07.17.15.62.15,1.51v19.41c0,.87-.08,1.34-.16,1.54-.03.07-.11.17-.37.25-.33.08-1.03.16-2.17.22l.04.74h0s-.04-.74-.04-.74l-.7.04v1.96h11.34c1.92,0,3.69-.29,5.29-.87h0s0,0,0,0h0ZM113.85,3.92l.49-.55h0s-.49.55-.49.55c.93.83,1.43,2.02,1.43,3.69s-.5,2.86-1.4,3.66c-.92.81-2.34,1.29-4.4,1.31h0l-4.48.03V2.58h4.39c2.1,0,3.53.49,4.45,1.33h0s.01,0,.01,0ZM109.12,25.82h0l-4.11.03v-11.16h4.42c2.3,0,3.89.53,4.91,1.45l.5-.54h0s0,0,0,0l-.49.55c1.03.91,1.58,2.23,1.58,4.09s-.57,3.18-1.64,4.11c-1.05.92-2.73,1.45-5.17,1.47ZM114.77,24.91s0,0,0,0v-.02s0,.02,0,.02ZM101.82,25.74h0s0,0,0,0h0ZM117.89,23.97h0,0Z"/>
  <polygon class="cls-1" points="330.08 21.39 330.08 21.39 330.71 21.01 330.08 21.39"/>
  <polygon class="cls-1" points="75.38 3.1 75.38 3.1 75.73 2.45 75.38 3.1"/>
  <polygon class="cls-1" points="114.34 16.16 114.83 15.6 114.33 16.15 114.34 16.16"/>
  <path class="cls-1" d="M80.22,18.74h-.6l-.13.58c-.51,2.35-1.05,3.88-1.6,4.69-.5.74-1.28,1.24-2.42,1.46-1.23.23-3.46.35-6.73.35h-.4c-.75,0-1.2-.07-1.44-.15-.15-.08-.23-.17-.26-.29-.07-.24-.12-.71-.12-1.47v-9.49h9.41v-2.09h-9.41V2.58h6.04c1.31,0,2.23.2,2.82.52l.35-.65h0l-.34.65c.61.32,1.11.85,1.48,1.62.39.82.77,2.05,1.14,3.74l.53-.11h0s-.53.11-.53.11l.13.58h1.99l-.11-.84-.95-7.08-.73.1h0l.73-.1-.09-.64h-19.56v1.96l.7.04c1.15.06,1.84.15,2.15.24l.21-.71h0,0s-.21.71-.21.71h.02s.02.01.02.01c.24.06.31.15.34.23h0s0,.01,0,.01l.67-.29h0s-.67.29-.67.29c.07.17.15.62.15,1.51v19.41c0,.87-.08,1.34-.16,1.54-.03.07-.11.17-.37.25-.33.08-1.03.16-2.17.22l-.7.04v1.96h20.96l.09-.64,1.04-7.69.11-.84h-1.39ZM63.33,25.74h0s0,0,0,0h0Z"/>
  <path class="cls-1" d="M266.94,14.69h3.96c1.66,0,2.78.41,3.48,1.1l.52-.53h0s-.5.54-.5.54c.73.68,1.21,1.79,1.32,3.45l.74-.05h0s-.74.07-.74.07c.04.41.06,1.05.06,1.92v1.28c0,.67.01,1.17.03,1.49h0c.09,1.39.51,2.54,1.39,3.29l.46-.55h0s-.46.55-.46.55h.02c.84.68,1.83,1,2.93,1s1.99-.32,2.76-.97l-.42-.51h0l.42.51h0c.8-.68,1.34-1.68,1.67-2.91l-.71-.19s0,0,0,0h0s.19-.71.19-.71l-.58-.15-.19.71h0s.19-.71.19-.71l-.68-.18-.21.67c-.53,1.67-1.19,2.11-1.8,2.11-.39,0-.61-.12-.78-.32-.17-.25-.35-.82-.41-1.89l-.74.04h0s.74-.04.74-.04v-.02c-.02-.21-.03-.56-.03-1.07v-.05l-.74.05h0l.74-.05c-.02-.32-.05-.86-.09-1.61h0c-.02-.76-.06-1.45-.12-2.08h0c-.15-1.61-.66-2.95-1.59-3.95h0s0,0-.01-.01c0,0,0,0,0,0h0c-.4-.45-.9-.8-1.45-1.08,1.02-.39,1.93-.91,2.69-1.59,1.36-1.22,2.05-2.79,2.05-4.64,0-1.45-.42-2.74-1.28-3.84h0c-.85-1.1-2.01-1.92-3.44-2.47-1.42-.55-3-.81-4.72-.81h-11.76v1.96l.7.04c1.15.06,1.84.15,2.15.24h.02s.02.01.02.01c.24.06.31.15.34.23h0s.66-.27.66-.27h0s-.66.29-.66.29c.07.17.15.62.15,1.51v19.41c0,.86-.07,1.34-.15,1.54-.03.07-.11.17-.37.25-.33.08-1.03.16-2.17.22l-.7.04v1.96h10.49v-1.96l-.7-.04c-1.12-.06-1.84-.14-2.2-.22-.22-.07-.3-.16-.34-.25-.08-.2-.15-.68-.15-1.54v-9.21ZM279.43,26.04h0s0,0,0,0c0,0,0,0,0,0ZM275.91,3.36h0s0,0,0,0l-.47.57c1.02.83,1.56,2.02,1.56,3.67s-.54,2.8-1.56,3.64h0c-1.03.84-2.53,1.31-4.61,1.33h0l-3.9.03V2.58h3.81c2.14,0,3.66.49,4.68,1.35l.48-.56ZM275.67,11.52l.24.29s0,0,0,0l-.24-.29ZM263.76,25.74h-.02s.02,0,.02,0c0,0,0,0,0,0ZM262.9,26.41h0s0,0,0,0h0ZM267.24,26.41v-.02s0,.02,0,.02c0,0,0,0,0,0ZM266.42,25.74h0s0,0,0,0h0ZM276.56,23.91h0s-.01,0-.01,0h.01ZM278.75,21.01h0s0,0,0,0h0Z"/>
  <polygon class="cls-1" points="466.84 2.97 466.85 2.99 467.53 2.69 466.84 2.97"/>
  <polygon class="cls-1" points="275.73 19.26 275.73 19.27 276.46 19.21 275.73 19.26"/>
  <polygon class="cls-1" points="232.59 8.77 233.3 8.73 233.28 8.02 232.54 8.03 232.59 8.77"/>
  <polygon class="cls-1" points="446.82 2.73 446.84 2.73 446.87 2.74 447.04 2.02 446.82 2.73"/>
  <polygon class="cls-1" points="197.73 2.69 198.09 2.05 197.71 2.68 197.73 2.69"/>
  <polygon class="cls-1" points="275.45 3.94 275.91 3.36 275.44 3.93 275.45 3.94"/>
  <polygon class="cls-1" points="211.62 6.65 211.62 6.65 210.92 6.42 211.62 6.65"/>
  <path class="cls-1" d="M413.07,13.88c1.46-.55,2.65-1.35,3.52-2.42.89-1.1,1.32-2.39,1.32-3.85s-.44-2.74-1.31-3.84h0s0,0,0-.01c0,0,0,0,0,0h0c-.85-1.09-2-1.91-3.42-2.45-1.42-.55-2.99-.81-4.69-.81h-11.76v1.96l.7.04c1.15.06,1.84.15,2.15.24h.02s.02.01.02.01c.24.06.31.15.34.23h0s.66-.27.66-.27h0s-.66.29-.66.29c.07.17.15.62.15,1.51v19.41c0,.86-.07,1.34-.16,1.54-.03.07-.11.17-.37.25-.33.08-1.03.16-2.17.22l-.7.04v1.96h10.49v-1.96l-.7-.04-.04.74v-.02l.04-.72c-1.12-.06-1.84-.14-2.2-.22-.22-.07-.3-.16-.34-.25-.08-.2-.15-.68-.15-1.54v-9.21h4.42c1.78,0,3.4-.26,4.84-.81h0s0,0,0,0c0,0,0,0,0,0h0ZM407.76,12.58h0l-3.96.03V2.58h3.87c2.14,0,3.65.49,4.65,1.35l.09-.11-.09.11h0s.45-.53.45-.53h0s-.45.54-.45.54c1,.83,1.53,2.02,1.53,3.67s-.53,2.81-1.53,3.64h0c-1.01.83-2.5,1.31-4.57,1.33ZM400.62,25.74h-.02s.02,0,.02,0c0,0,0,0,0,0ZM404.1,26.41v-.02s0,.02,0,.02c0,0,0,0,0,0ZM403.28,25.74s0,0,0,0h0s0,0,0,0ZM412.8,13.19h0,0Z"/>
  <path class="cls-1" d="M222.72,14.43h0s2.41,1.19,2.41,1.19h0c1.2.6,2.2,1.17,3,1.72.76.52,1.37,1.14,1.84,1.87h0s.61-.4.61-.4h0s0,0,0,0l-.61.41c.44.66.67,1.45.67,2.4s-.26,1.75-.77,2.43l.59.44s0,0,0,0l-.09-.06-.5-.38h0c-.5.68-1.19,1.21-2.1,1.59-.92.37-1.93.56-3.02.56-1.32,0-2.49-.32-3.52-.96h0c-1.03-.64-1.86-1.52-2.49-2.63h0c-.61-1.13-.95-2.4-1-3.82l-.55.02h0s.55-.02.55-.02l-.03-.71h-2.01l.02.76.74-.02h0s-.74.02-.74.02l.18,8.09.02.72h1.98l.03-.71c0-.24.03-.42.06-.55.01-.05.02-.08.03-.1.05.01.1.03.16.06l.04.02h.04s.25-.68.25-.68h0s0,0,0,0l-.25.69c.17.06.43.18.78.38l.08-.14-.08.14h.02s.33-.63.33-.63v-.02s.01,0,.01,0l-.34.66c.86.44,1.71.8,2.55,1.08.89.3,1.98.43,3.23.43,1.58,0,3.08-.3,4.48-.92h0s0,0,0,0c0,0,0,0,0,0h0c1.42-.61,2.59-1.49,3.47-2.64l-.59-.45h0s.59.45.59.45h0c.89-1.2,1.34-2.58,1.34-4.11,0-1.4-.33-2.64-1.03-3.71h0s0,0,0,0c0,0,0,0,0,0h0c-.64-1.04-1.49-1.91-2.52-2.62-1-.68-2.19-1.35-3.58-2.01l-.03.06.03-.06h0s-.28.6-.28.6l-.03.06h0l.31-.67-2.57-1.19h0s-.22.48-.22.48l-.08.18.3-.66c-1.68-.77-2.88-1.57-3.64-2.39-.71-.8-1.06-1.73-1.06-2.83s.41-1.97,1.26-2.66c.85-.7,2.01-1.08,3.53-1.08,1.11,0,2.14.24,3.09.72l.31-.63s0,0,0,0l-.03.07-.28.56h0c.96.47,1.76,1.16,2.41,2.08l.19-.13-.19.13h0s.57-.41.57-.41l.03-.02s0,0,0,0l-.6.43c.66.91,1.1,2,1.31,3.29l.11.66.67-.04-.04-.74h0s0,0,0,0l.04.74.52-.03-.04-.74h0s.74-.02.74-.02l-.15-6.68-.02-.72h-1.87l-.07.66c-.03.25-.06.43-.1.56-.02.06-.03.08-.03.1,0,0-.07,0-.27-.08-.2-.07-.46-.19-.8-.36h0c-.89-.44-1.73-.78-2.52-1.04h0s0,0,0,0c0,0,0,0-.01,0h0c-.83-.3-1.8-.43-2.88-.43-1.46,0-2.82.28-4.06.86h0c-1.23.56-2.22,1.35-2.95,2.38-.74,1.04-1.11,2.23-1.11,3.54,0,1.73.53,3.23,1.62,4.43,1.05,1.16,2.62,2.22,4.68,3.22ZM217.41,25.84h0s.63.37.63.37h0l-.62-.37ZM220.21,9.16s0,0,0,0h0s0,0,0,0ZM223.05,13.77h0s0,0,0,0ZM220.85,25.86s0,0,0,0h0l.06-.09-.05.09ZM218.1,22.96h0s0,0,0,0h0ZM231.59,2.41h0s0,0,0,0l-.59-.44.59.44ZM220.78,1.52s0,0,0,0l-.04-.09.04.09Z"/>
  <rect class="cls-1" x="283.97" y="23.55" width=".74" height=".74" transform="translate(187.24 292.23) rotate(-74.92)"/>
  <polygon class="cls-1" points="466.46 2.73 466.48 2.73 466.5 2.74 466.67 2.02 466.46 2.73"/>
</svg>