<svg width="95" height="32" viewBox="0 14 95 32" fill="none" xmlns="http://www.w3.org/2000/svg">
<path fill-rule="evenodd" clip-rule="evenodd" d="M2.93144 15.9543C2.39177 15.9543 1.95429 16.3918 1.95429 16.9314V38.4286H0V16.9314C0 15.3125 1.31245 14 2.93144 14H29.112C30.4178 14 31.0718 15.5788 30.1484 16.5021L14.0237 32.6268H18.5658V30.6115H20.5201V33.1154C20.5201 33.9249 19.8638 34.5811 19.0543 34.5811H12.0694L8.71049 37.9401H23.9401V25.7257H25.8944V37.9401C25.8944 39.0194 25.0194 39.8944 23.9401 39.8944H6.7562L3.33618 43.3144H28.3372C28.8769 43.3144 29.3144 42.8769 29.3144 42.3372V20.84H31.2687V42.3372C31.2687 43.9562 29.9562 45.2687 28.3372 45.2687H2.15667C0.850848 45.2687 0.196896 43.6899 1.12024 42.7665L17.1839 26.7029H12.7029V28.6572H10.7486V26.2143C10.7486 25.4048 11.4048 24.7486 12.2143 24.7486H19.1382L22.5582 21.3286H7.32859V33.5429H5.3743V21.3286C5.3743 20.2493 6.24927 19.3743 7.32859 19.3743H24.5125L27.9325 15.9543H2.93144Z" fill="#1348DC"/>
<path d="M92.454 36.9431C92.454 37.2044 92.6658 37.4162 92.9271 37.4162H94.384C94.6453 37.4162 94.8571 37.628 94.8571 37.8893V39.3755C94.8571 39.6368 94.6453 39.8486 94.384 39.8486H90.0551C89.7938 39.8486 89.582 39.6368 89.582 39.3755V39.1913C89.582 38.7066 88.8297 38.4659 88.4665 38.7869C87.3853 39.7424 85.8983 40.2882 84.1311 40.2882C80.0283 40.2882 77.0098 37.1524 77.0098 32.1704C77.0098 27.1298 80.0576 23.9648 84.1897 23.9648C85.8979 23.9648 87.3987 24.5232 88.5273 25.5576C88.8785 25.8794 89.582 25.6501 89.582 25.1737V20.7746C89.582 20.5133 89.3702 20.3015 89.1089 20.3015H85.7764C85.5151 20.3015 85.3033 20.0897 85.3033 19.8285V18.3422C85.3033 18.081 85.5151 17.8691 85.7764 17.8691H91.9809C92.2422 17.8691 92.454 18.081 92.454 18.3422V36.9431ZM84.8638 37.6799C87.6771 37.6799 89.582 35.3648 89.582 32.0825C89.582 28.7416 87.7357 26.573 84.8638 26.573C82.0211 26.573 80.1748 28.7709 80.1748 32.1118C80.1748 35.3941 82.0797 37.6799 84.8638 37.6799Z" fill="#1348DC"/>
<path d="M67.3121 40.3175C62.2714 40.3175 59.2236 37.0646 59.2236 32.2291C59.2236 27.6574 62.2714 23.9648 67.2535 23.9648C72.0889 23.9648 74.9316 27.4522 74.9316 31.9947V32.3714C74.9316 32.6327 74.7198 32.8445 74.4585 32.8445H62.8C62.5287 32.8445 62.3111 33.0727 62.3475 33.3415C62.6831 35.8156 64.5057 37.6214 67.2828 37.6214C69.6852 37.6214 71.0449 36.4769 71.5988 34.9462C71.6712 34.7461 71.8554 34.6029 72.0682 34.6029H74.3363C74.6312 34.6029 74.8552 34.8703 74.7817 35.1559C74.0166 38.1308 71.5104 40.3175 67.3121 40.3175ZM62.547 29.8369C62.4621 30.1177 62.686 30.3828 62.9793 30.3828H71.2105C71.4918 30.3828 71.713 30.1377 71.6476 29.8641C71.2387 28.1516 69.7251 26.6024 67.1948 26.6024C64.5755 26.6024 63.055 28.155 62.547 29.8369Z" fill="#1348DC"/>
<path d="M54.0124 37.2985C54.2737 37.2985 54.4855 37.0867 54.4855 36.8254V32.2621C54.4855 32.0008 54.6973 31.789 54.9586 31.789H56.7086C56.9699 31.789 57.1817 32.0008 57.1817 32.2621V39.375C57.1817 39.6363 56.9699 39.8481 56.7086 39.8481H41.7416C41.4804 39.8481 41.2686 39.6363 41.2686 39.375V37.4295C41.2686 37.3255 41.3028 37.2245 41.366 37.1419L52.4671 22.6443C52.7054 22.333 52.4835 21.8836 52.0914 21.8836H44.7015C44.4403 21.8836 44.2285 22.0954 44.2285 22.3567V26.0995C44.2285 26.3607 44.0166 26.5725 43.7554 26.5725H42.0054C41.7441 26.5725 41.5323 26.3607 41.5323 26.0995V19.8071C41.5323 19.5458 41.7441 19.334 42.0054 19.334H56.2104C56.4717 19.334 56.6835 19.5458 56.6835 19.8071V21.7516C56.6835 21.8562 56.6488 21.9578 56.585 22.0406L45.4024 36.5365C45.1625 36.8475 45.3842 37.2985 45.777 37.2985H54.0124Z" fill="#1348DC"/>
</svg>
